<?xml version="1.0" encoding="UTF-8"?><svg id="Layer_1" xmlns="http://www.w3.org/2000/svg" width="534.75" height="534.75" viewBox="0 0 534.75 534.75"><path id="Path_5718" d="M140.7,194.34c.52-1.79,1.02-3.58,1.56-5.36,1.1-3.65,2.22-7.28,3.33-10.93,.2-.64,.37-1.29,.59-2.07l-9.02-1.37c.12-1.13,.1-2.28-.07-3.4-.23-.88-.97-2.14-1.65-2.25-1.08-.11-2.15,.29-2.9,1.07-1.78,2.31-2.19,2.52-4.8,1.26-9.69-4.19-16.92-12.6-19.61-22.8-3.5-10.81-1.23-22.66,6-31.43,3.88-5.02,9.42-8.49,15.63-9.8,8.2-2.11,16.91,.19,23.02,6.06,5.12,4.87,7.36,12.05,5.9,18.97-.2,1.63-.29,3.27-.27,4.91l.69,.15c.64-.93,1.29-1.86,1.93-2.78,1.68-2.67,4.67-4.24,7.82-4.11,3.3,.16,6.59,.54,9.87,.88,1.71,.17,1.98-.97,1.93-2.17-.21-4.07-1.57-8-3.9-11.35-.39-.6-.95-1.08-1.61-1.37,.18,.89,.32,1.79,.55,2.67,.86,2.4,.1,5.08-1.89,6.67-2.63,2.25-7.04,3.28-9.3,1.2-1.6-1.7-2.71-3.79-3.22-6.07-1.2-4.51,1.02-10.92,5.19-12.13,3.61-1.01,7.48-.32,10.53,1.86,1.15,.74,2.23,1.58,3.62,2.58,.02-2.66-1.16-5.18-3.22-6.86-4.95-5.05-7.66-11.89-7.52-18.96-.04-3.45-.36-6.9-.94-10.31-1.27-6.31-9.11-10.07-13.68-10.26-4.47-.35-8.42,2.89-8.95,7.34-1.26,5.73-.32,10.74,6.6,12.88,2.4,.73,5,.21,6.93-1.38,.85-1.06,1.25-2.4,1.11-3.75,.11-3.49-2.11-6.62-5.44-7.66-2.29-.44-4.55,.9-5.28,3.11-.33,2.06,1.01,4.02,3.06,4.46,.84,0,1.68-.06,2.51-.16,.05-.21,.11-.43,.16-.64-.81-.4-1.61-.86-2.44-1.2-1.67-.67-1.98-2.14-.64-3.31,1.11-.97,3.71-1.57,4.71,.22,.84,1.25,1.48,2.62,1.88,4.08,.17,2.42-1.66,4.52-4.08,4.69-.47,.03-.94-.01-1.4-.13-4.97-.73-7.46-3.84-6.46-8.04,.95-4.57,5.43-7.51,10-6.56,.13,.03,.26,.06,.39,.09,4.8,1.29,6.61,4.78,6.34,10.53-.27,5.55-4.98,9.83-10.53,9.56-.61-.03-1.21-.11-1.8-.25-4.88-1.11-8.52-5.2-9.05-10.18-.93-4.84,.24-9.85,3.22-13.77,3.53-4.26,9.29-5.97,14.58-4.33,1.85,.73,3.73,1.38,5.61,2.01,.78,.21,1.56,.39,2.35,.52-1.09-3.61-3.5-6.68-6.74-8.61-4.42-2.94-7.32-7.69-7.93-12.97-.36-4.07,1.47-8.02,4.8-10.37,3.72-2.29,8.47-2.01,11.89,.71,3.19,3.29,3.9,8.26,1.77,12.32-2.48,2.4-6.25,2.85-9.23,1.1-2.53-2.22-2.85-6.03-.73-8.64,1.65-1,3.47-1.7,5.36-2.1-.81-1.06-2.11-1.61-3.43-1.47-3.55,.42-6.26,3.37-6.39,6.95-.26,5.1,2.74,8.02,6.13,10.76,3.13,2.53,6.91,4.35,8.85,8.15,.72,1.42,1.25,2.94,1.99,4.35,.34,.8,.91,1.47,1.64,1.93,.35,.16,1.38-.67,1.81-1.26,3.81-4.73,5.33-10.89,4.16-16.85-.69-3.54-1.18-7.12-1.46-10.71-.18-4.42,1.33-8.73,4.22-12.08,3.47-4.87,8.58-8.31,14.4-9.68,7.9-1.86,15.03-.59,20.5,5.93,2.26,2.92,3.59,6.46,3.8,10.15,.49,4.77-.22,9.6-2.06,14.03-1.83,4.47-5.71,7.78-10.42,8.88-.43,.18-.85,.4-1.25,.64l6.53,8.12c.99-2.82,1.68-5.24,2.66-7.54,2.44-5.73,5.26-11.17,11.95-13.02,.91-.38,1.87-.64,2.85-.77,2.38,0,2.35-1.42,2.01-3.06-.39-2.8-2.91-4.81-5.73-4.54-.93,.06-1.87,.04-2.81-.04-1.27-.2-2.39-.64-2.23-2.35-.02-2.47,.17-4.94,.57-7.38,1.19-3.63,4.49-6.16,8.3-6.39,3.96-1.04,8.17-.24,11.47,2.17,1,.85,2.25,1.96,2.43,3.1,.42,3.05,.56,6.14,.42,9.22-.07,1.61-1.75,1.97-3.14,2.11-1.24,.12-2.51-.09-3.74,.07-.87,.11-2.33,.48-2.41,.93-.23,1.06,.02,2.17,.69,3.03,2.09,1.53,4.32,2.87,6.65,4,5.39,2.69,11.41,4.3,15.75,8.8,1.5,1.74,2.86,3.6,4.08,5.55,1.29,1.85,2.33,2.18,3.91,.77,6.84-5.5,11.7-13.07,13.87-21.58,1.63-6.16-.63-12.69-5.73-16.51-3.69-2.65-8.59-2.88-12.51-.59-3.84,2.75-5.8,7.43-5.07,12.1,.88,3.42,3.79,5.94,7.3,6.33,2.94-.01,5.55-1.88,6.51-4.65,.58-1.96-.04-4.08-1.57-5.44-1.16-1.33-3.07-1.73-4.66-.97-2.27,.64-2.52,2.16-1.34,3.39,1.31-.66,2.72-1.08,4.17-1.26,1.72,.14,1.93,1.75,1.74,3.24-.09,1.69-1.39,3.07-3.07,3.27-2.85,.75-5.77-.96-6.51-3.81-.12-.45-.18-.91-.17-1.37-.14-4.15,2.89-7.73,7.01-8.26,3.53-.02,6.62,2.39,7.47,5.82,1.66,5.69-1.61,11.64-7.3,13.3-1.16,.34-2.37,.48-3.57,.41-4.13,.04-7.8-2.62-9.06-6.55-2.02-5.4-1.38-11.44,1.73-16.3,2.12-3.22,5.71-5.16,9.56-5.16,5.29-.62,10.57,1.24,14.29,5.04,4.21,4.65,6.01,11,4.88,17.17-1.11,8.16-4.45,15.85-9.66,22.22-1.32,1.71-2.75,3.33-4.27,4.86-3.15,3.13-2.32,7.04-2.12,10.74,.28,2.17,.74,4.31,1.37,6.4l.68,.19c.54-1.09,1.13-2.16,1.61-3.28,1.85-5.13,5.62-9.34,10.52-11.73,8.87-3.96,19.8-1.56,23.93,8.12,3.64,8.51-.32,19.83-10.54,21.93-6.34,1.87-12.99-1.74-14.87-8.08-.39-1.3-.55-2.67-.48-4.03-.68-5.6,3.31-10.69,8.91-11.37,.37-.05,.75-.07,1.13-.07,3.47-.34,6.71,1.76,7.82,5.06,1.49,3.91,.26,8.33-3.03,10.9-2.31,1.52-5.41,.93-6.99-1.34-1.8-2.22-1.74-5.41,.14-7.56,1.28-1.16,3.23-1.19,4.55-.07,.62,.57,.27,2.28,.23,3.46-.12,.51-.33,.99-.62,1.43l.5,.54c.75-.64,1.98-1.2,2.14-1.97,.26-1.27,.09-2.59-.5-3.76-1.34-1.87-3.73-2.68-5.94-2-2.48,.67-4.35,2.72-4.8,5.25,.26,4.4,3.56,8.03,7.92,8.72,3.7,.28,7.09-.21,8.82-3.96,2.18-4.07,1.85-9.03-.84-12.78-2.1-3.44-6.05-5.28-10.03-4.69-6.21,.35-11.44,4.77-12.82,10.84-2.32,10.22,1.98,19.69,13.68,23.75,5.72,1.93,11.22,4.45,16.42,7.52,9.63,6.01,16.19,15.9,17.99,27.12,1.03,4.98,3.22,5.96,7.73,3.22,5.97-3.8,10.11-9.91,11.42-16.87,2.03-7.23,.69-15-3.65-21.13-4.65-6.48-13.68-7.97-20.16-3.32-.08,.06-.16,.12-.24,.18-3.27,3.51-3.69,8.8-1.03,12.79,1.16,1.35,2.52,2.5,4.05,3.41,2.47,1.54,5.72,.79,7.25-1.68,.04-.06,.08-.12,.11-.19,1.89-2.61,2-6.11,.27-8.83-1-1.47-2.91-2.02-4.53-1.29-1.68,.42-2.76,2.05-2.5,3.76,.83-.78,1.72-1.48,2.67-2.1,1.16-.73,2.69-.39,3.43,.77,.26,.41,.39,.88,.38,1.37,.35,3.83-1.54,6.19-4.9,6.34-3.52,.16-5.1-2.2-5.22-5.67-.2-3.31,1.53-6.45,4.43-8.05,2.68-1.37,5.95-.8,8.01,1.39,3.99,4.7,3.99,11.6,0,16.31-4.59,4.26-11.77,4-16.04-.6-.48-.52-.92-1.09-1.29-1.69-2.97-4.87-2.39-15.94,2.83-20.08,1.13-.95,2.2-1.97,3.2-3.06,.33-.35,.5-.81,.49-1.29-.15-.74-.36-1.47-.62-2.19-.37-2.14-2.41-3.57-4.55-3.2-.21,.04-.42,.09-.63,.16-.35,.15-.72,.25-1.1,.32-3.93,.02-5.2,.29-5.06-4.52,.04-2.66,.53-5.29,1.43-7.79,1.46-3.82,9.05-5.51,12.36-4.76,.81,.19,1.66,.3,2.45,.54,4.51,1.33,6.38,4.02,6.56,9.34,.06,.99,.2,1.97,.41,2.94,.43,1.61-.53,3.27-2.14,3.7-.26,.07-.53,.1-.8,.1-1.4,.08-2.81-.03-4.21,.03-1.81,.08-2.4,1.05-1.67,2.72,.92,1.92,2.93,3.08,5.05,2.92,1.78,.09,3.58,.02,5.51,.02,.24-2.25,.63-4.46,.68-6.66,.29-4.89,1.53-9.68,3.65-14.1,2.33-5.33,5.15-10.47,7.03-15.95,1.46-4.19,2.24-8.59,2.31-13.03,.23-8.67-5.15-16.51-13.33-19.4-4.96-1.79-10.14-2.89-15.39-3.28-6.19-.29-12.27,1.72-17.07,5.64-4.2,2.68-7.16,6.93-8.21,11.8-1.47,11.09,3.63,23,17.32,25.55,6.26,1.3,12.78-.31,17.71-4.38,5.96-4.86,6.84-13.64,1.98-19.59-.04-.05-.08-.1-.12-.15-4.06-4.82-10.77-6.46-16.6-4.08-5.02,1.76-7.66,7.24-5.9,12.26,.45,1.29,1.18,2.47,2.12,3.46,3.07,3.42,7.99,4.49,12.21,2.67,2.68-1.37,4.23-4.27,3.86-7.27-.58-2.31-2.48-4.05-4.83-4.42-2.1-.37-4.19,.68-5.15,2.58-.1,.67-.08,1.35,.05,2.01l.69,.07c.56-.7,1.07-1.44,1.69-2.08,.8-.86,2.16-.91,3.02-.11,.23,.21,.4,.47,.52,.75,.82,2.1-.22,4.46-2.32,5.28-.35,.13-.71,.22-1.08,.26-3.16,.49-6.19-1.44-7.09-4.51-.14-3.72,2.07-7.12,5.53-8.5,4.99-1.65,10.38,1.07,12.02,6.06,.34,1.03,.5,2.12,.48,3.2-.5,8.59-6.01,12.96-14.81,11.55-7.27-1.25-12.48-7.72-12.14-15.09,1.12-6.58,5.84-11.96,12.22-13.92,8.32-2.3,16.71-.22,21.07,7.22,2.85,4.89,3.87,10.63,2.86,16.2-.49,4.13-2.29,8-5.12,11.04-3.39,3.03-7.66,4.92-12.18,5.39-8.26,1.63-16.82-.3-23.58-5.32-8.95-5.97-12.81-17.18-9.44-27.4,4.04-12.67,13.03-19.42,25.91-21.45,7.4-1.3,15.02-.3,21.83,2.86,8.9,4.19,17.75,14.97,17.53,26.01-.13,6.84-1.74,13.57-4.72,19.74-2.85,6.01-5.64,12.06-8.12,18.23-1.85,3.71-1.95,8.05-.28,11.85,2.02,3.41,4.22,6.71,6.61,9.88,.6-2,.93-3.22,1.33-4.44,1.36-4.14,5.69-6.52,9.92-5.45,3.9,.73,6.77,4.08,6.9,8.05-.1,2.28,1.04,3.15,3.31,2.63,8.53-1.66,14.66-9.16,14.59-17.84,.42-5.46-2.25-10.7-6.91-13.58-4.22-2.59-9.62-2.2-13.43,.97-1.16,1.22-1.92,2.77-2.16,4.44-.64,3.3-.03,6.71,1.72,9.58,1.49,2.07,3.89,3.31,6.44,3.33,3.29-.47,6.03-2.76,7.07-5.92,.78-2.28,0-4.81-1.93-6.24-1.46-1.22-3.52-1.43-5.2-.52-1.92,.73-3.12,2.64-2.95,4.69,.56-.64,.82-.95,1.07-1.25,1.16-1.86,3.57-2.49,5.5-1.43,1.79,1.22,2.43,3.56,1.52,5.52-.94,2.47-3.57,3.86-6.14,3.25-2.77-.3-4.96-2.48-5.27-5.25-.16-5.29,1.76-8.1,6.67-9.19,4.36-1.09,8.78,1.56,9.87,5.92,.1,.38,.16,.77,.2,1.17,.8,8.07-4.05,12.32-11.06,12.93-6.03,.1-11.14-4.43-11.75-10.43-1.09-8.28,4.74-15.87,13.02-16.96,6.7-.88,13.18,2.79,15.86,9,2.41,5.35,2.9,11.36,1.39,17.03-1.78,5.58-5.76,10.18-11.03,12.73-4.16,2.24-8.66,3.84-12.82,6.07-4.67,2.37-8.74,5.78-11.89,9.97-1.46,2.4-2.46,5.06-2.96,7.83-2.03,9.36-8.72,17.04-17.71,20.34-3.08,.9-5.32,3.56-5.68,6.74-1.51,10.49-5.57,20.46-11.82,29.02-2.52,3.66-5.33,7.11-8.08,10.61-.91,1.16-1.83,.62-2.77-.21-.68-.68-1.53-1.18-2.46-1.43-.62-.1-1.9,.56-1.96,1-.15,.98,.1,1.98,.71,2.77,2.05,1.93,2.04,3.65-.21,5.59-4.86,4.17-9.66,8.4-14.49,12.6-3.43,2.98-6.94,5.88-10.31,8.95-1.64,1.33-2.33,3.52-1.74,5.55,.65,3.48,1.01,7.01,1.06,10.55,.42,5.42,.55,10.85,.39,16.29-.5,5.33-1.27,10.64-2.31,15.89-.32,1.95-.99,3.85-1.29,5.8-.45,2.92,1.57,4.61,4.16,3.15,4.17-2.4,8.21-5.02,12.1-7.86,2.35-1.86,4.61-3.85,6.75-5.95,.49,.75,.94,1.51,1.46,2.24,1.39,1.93,2.12,2.05,3.6,.38,.45-.51,1-1.49,.8-1.9-.46-.74-1.15-1.31-1.97-1.61-.93-.16-1.87-.18-2.81-.05,1.13-1.55,2.35-3.03,3.66-4.43,4.01-3.88,6.48-9.08,6.94-14.63,.74-6.35-2.44-12.52-8.05-15.59-5.13-2.32-11.71-.64-13.7,3.82-.63,2.07-.99,4.21-1.07,6.37l1.06,.23c.44-1.23,.97-2.43,1.31-3.68,1.15-3.87,5.22-6.06,9.09-4.91,1.38,.41,2.61,1.22,3.53,2.33,3,4.62,2.99,10.58-.03,15.18-4.07,4.07-10.66,4.07-14.73,0-.09-.09-.18-.18-.27-.28-6.23-6.02-3.69-21.81,5.9-23.71,2.88-.44,5.82-.36,8.67,.23,4.55,.76,4.62,.98,5.91-3.19,1.13-3.67,4.32-6.33,8.13-6.79,.88-.19,1.75-.44,2.93-.74-.39-.87-.85-1.72-1.38-2.52-4.96-6.42-3.66-17.87,1.06-24.21,4.24-5.5,10.82-8.68,17.77-8.57,7.75-.64,15.34,2.51,20.35,8.45,1.33,1.77,2.51,3.65,3.54,5.61,.47,.76,.98,1.5,1.73,2.64,.62-2.58,1.45-5.1,2.5-7.53,2.58-4.76,5.39-9.38,8.32-13.93,2.81-3.53,5.36-7.25,7.64-11.15,3.5-7.41,2.49-16.17-2.6-22.6-3.89-5.28-10.77-7.39-16.95-5.2-7.04,2.05-11.09,9.42-9.05,16.46,.18,.62,.41,1.23,.68,1.82,3.09,6.42,13.3,8.61,18.16,3.54,4.12-4.31,2.05-12.97-3.47-14.51-3.44-.97-5.47,1.29-7.54,3.44-1.21,1.02-1.55,2.74-.82,4.14,.46,.78,.97,1.54,1.52,2.25,.33-1.67,.8-3.31,1.4-4.9,.97-2.02,5.92-3.54,7.1-2.01,1.17,1.69,1.7,3.74,1.5,5.78,.09,3.58-2.74,6.56-6.32,6.66-.47,.01-.95-.03-1.41-.12-4.1-.74-7.2-4.14-7.55-8.3-.33-5.19,3.26-9.82,8.37-10.79,5.79-1.34,11.56,2.27,12.9,8.06l.02,.1c1.22,7.5-.61,14.62-8.11,17.07-6.1,2.48-13.1,.91-17.55-3.94-1.49-1.82-2.43-4.03-2.7-6.36-1.06-4.94-.57-10.08,1.41-14.73,4.77-9.17,16.06-12.74,25.23-7.98,.89,.46,1.74,.99,2.54,1.59,5.61,4.04,9.2,10.32,9.83,17.21,.21,5.12-.35,10.24-1.66,15.19-.28,1.57,.14,1.81,1.35,1.82,8.79,.03,17.57,.26,25.96-3.22,7.22-2.93,12.84-8.81,15.44-16.16,1.66-4.14,2.48-8.58,2.41-13.04-.23-6.57-2.82-12.85-7.29-17.67-2.95-3.8-7.1-6.49-11.77-7.62-5.27-.95-10.69,.3-15.01,3.46-4.42,3.18-7.21,8.14-7.65,13.56-1.11,6.36,4.65,16.42,10.72,18.65,6.31,1.87,13.04-1.13,15.85-7.09,2.78-4.73,1.93-10.75-2.04-14.53-2.89-2.93-7.61-2.97-10.54-.08l-.03,.03c-2.74,1.87-4.32,5.02-4.17,8.33,.29,3.84,3.63,6.73,7.48,6.44,.65-.05,1.29-.19,1.91-.42,.99-.59,1.67-1.58,1.85-2.72,.18-1.91,.21-3.83,.08-5.75-1.61-.06-3.16-.78-4.47,.97,.3,.14,.61,.23,.94,.29,1.52-.04,3.03-.14,3,2.09-.03,1.89-1.34,3.52-3.19,3.95-3.84,.51-5.4-1.23-4.73-5.25,.64-3.95,2.67-6.53,5.51-6.82,4.01-.41,5.91,.64,7.03,6.33,.29,4.16-1.68,8.16-5.15,10.46-4.78,2.43-10.63,.53-13.06-4.25-.38-.75-.67-1.55-.84-2.37-1.19-5.07-.07-10.41,3.05-14.58,4.15-5.09,11.58-6,16.83-2.06,3.94,3.16,6.24,7.94,6.26,12.99,.57,5.91-1.46,11.77-5.56,16.06-3.8,4.14-9.7,5.62-15.01,3.77-8.84-2.15-15.46-9.51-16.67-18.53-1.4-7.34,.81-14.91,5.94-20.35,3.1-3.72,7.27-6.4,11.94-7.69,10.13-3.1,21.1,.72,27.13,9.44,4,5.18,6.58,11.3,7.5,17.78,1,7.23,.05,14.6-2.77,21.33-1.43,3.81-3.63,7.29-6.46,10.22-5.09,4.6-11.33,7.73-18.05,9.07-8.35,1.88-16.87,.76-25.31,.9-2.07-.3-4.11,.7-5.15,2.51-1.71,3.07-3.59,6.05-5.35,9.09-.31,.64-.33,1.37-.06,2.03,1.29-.99,2.51-2.07,3.66-3.22,3.63-4.36,8.72-7.26,14.32-8.14,10.76-1.51,20.97,1.65,24.07,13.88,2.43,9.6-3.78,21.86-14.2,23.9-9.66,1.88-19.25-5.27-16.99-16.4,.63-4.95,3.79-9.22,8.33-11.27,5.04-2.31,11.01-.1,13.32,4.95,.58,1.26,.89,2.62,.91,4.01,.46,3.56-.7,7.13-3.16,9.75-3.48,2.66-8.37,2.43-11.59-.54-2.53-3.03-2.61-7.41-.2-10.53,1.79-1.66,4.34-2.23,6.67-1.49,2.37,.77,3.66,3.32,2.89,5.68-.42,1.29-1.4,2.32-2.66,2.81-.99,.38-2,.68-3.03,.91,2.02,1.54,4.9,1.15,6.43-.87,.17-.22,.31-.45,.44-.7,1.65-1.93,1.87-4.71,.54-6.87-1.42-2.06-3.83-3.2-6.32-2.98-4.2-.03-7.87,2.84-8.86,6.92-.38,4.08,1.7,8,5.28,9.98,5.94,3.23,13.37,1.03,16.6-4.91,.24-.45,.46-.91,.65-1.39,2.88-7.76-1.09-16.39-8.85-19.27-1.02-.38-2.09-.65-3.17-.79-5.68-.69-11.37,1.14-15.59,5-3.93,2.99-7.22,6.75-9.66,11.05-2.28,4.24-3.75,8.87-4.34,13.64-.81,5.85-1.5,11.71-2.32,17.56-.48,3.4-1.1,6.78-1.72,10.52,1.69-.12,3.42-.38,5.15-.36,3.67-.12,7.3,.82,10.45,2.72,3.75,2.46,3.99,2.52,7.15-.78,2.72-2.85,5.38-5.77,7.86-8.82,2.15-2.22,2.67-5.56,1.29-8.33-.44-.7-.96-1.35-1.54-1.93-.03,2.16-.29,4.3-.77,6.4-1.13,2.63-3.83,4.22-6.67,3.93-2.95-.56-5.23-2.89-5.73-5.85-.82-3.15,.19-6.49,2.62-8.66,3.86-2.93,9.37-2.18,12.3,1.68,.15,.19,.29,.39,.42,.6,1.2,1.89,2.29,3.84,3.28,5.84,1.51-.99,2.97-2.06,4.38-3.2,3.83-3.63,8.89-5.67,14.17-5.69,6.88,.05,13.77,.9,20.65,.8,10.63-.15,18.68-6.01,20.61-16.75,1.23-7.15-.35-14.5-4.43-20.5-5.6-7.85-16.51-9.68-24.36-4.08-1.5,1.07-2.83,2.38-3.92,3.86-4.58,7.24-2.43,16.82,4.8,21.41,.35,.22,.72,.43,1.09,.63,5.47,2.68,12.07,.41,14.75-5.06,.51-1.04,.85-2.15,1.01-3.29,1.2-6.1-.77-9.04-6.85-10.49-3.85-.61-7.56,1.71-8.7,5.44-.63,3.31,1,6.64,4.01,8.17,2.42,.95,5.15-.25,6.09-2.66,.2-.52,.31-1.07,.32-1.62-.08-1.61-.94-2.47-2.94-2.68,1.52,1.73,2.4,3.34,.52,4.93-1.45,1.11-3.49,1.02-4.83-.23-1.77-1.96-.99-4.01-.02-5.93,1.01-2.01,2.47-3.72,5.03-3.32,2.19,.15,4.03,1.69,4.58,3.81,1.06,3.13,.31,6.59-1.96,8.99-2.86,2.62-7.15,2.92-10.35,.73-3.31-2.5-4.85-6.7-3.94-10.75,.33-4.5,3.42-8.33,7.76-9.59,6.32-1.83,12.93,1.81,14.76,8.13,.12,.42,.22,.86,.3,1.29,1.08,6.05-.71,12.25-4.86,16.79-2.37,2.76-6.03,4.04-9.6,3.38-4.93-.49-9.54-2.69-13.02-6.22-4.29-4.29-5.94-10.55-4.34-16.39,1.19-7.25,5.75-13.51,12.29-16.88,9.94-4.76,21.86-1.08,27.39,8.44,3.56,5.61,5.35,12.16,5.15,18.79-.89,12.5-7.21,24.8-21.73,27.47-5.43,.79-10.94,.87-16.39,.23-6.01-.49-12-1.44-17,2.9-3.85,3.33-7.32,7.09-10.99,10.63-3.49,3.65-7.16,7.11-11.01,10.38-1.73,1.21-2.46,3.41-1.8,5.42,1.83,9.9-3.49,22.87-15.46,24.83-4.72,.83-9.54,.81-14.25-.06-7.51-1.52-14.81-4.08-22.17-6.34-2.83-.87-5.47-2.43-8.34-3.15-5.36-1.21-10.98-.62-15.96,1.7-7.78,3.1-14.17,8.94-17.94,16.42-3.1,6.09-3.86,10.83,4.42,16.22,6.79,4.76,15.81,4.85,22.7,.22,6.49-4.32,8.25-13.09,3.93-19.58-.52-.79-1.12-1.52-1.79-2.18-6.03-5.99-15.08-4.69-17.78,3.45-1.18,3.54,0,8.92,3.86,9.4-.68-1.72-1.45-3.31-1.93-4.99-1.06-4.02,1.34-8.14,5.36-9.19,.55-.14,1.11-.23,1.68-.24,6.51-.1,9.18,2.78,9.46,9.34,.83,5.03-2.45,9.82-7.43,10.87-5.9,1.69-12.04-1.73-13.73-7.62-.23-.82-.37-1.67-.42-2.52-.34-4.25,.88-8.47,3.43-11.88,3.03-3.72,7.84-5.49,12.56-4.61,8.11,.91,11.92,7.91,12.63,14.23,.8,5.58-.36,11.25-3.28,16.07-3.8,5.62-9.82,9.34-16.54,10.23-6.02,1.01-12.2,.42-17.91-1.73-1.92-.51-3.87-.88-5.85-1.1-1.92-.39-3.82,.79-4.32,2.69-1.08,2.43-1.8,5.01-2.13,7.65-.32,6.52-.73,13.13,2.65,19.21,1.8,3.61,6,5.32,9.81,4,5.77-2.03,10.8-5.73,14.46-10.63,.76-1.07,1.69-2.02,2.65-3.16,.79,1.03,1.65,1.99,2.58,2.9,1.09,.9,2.38,1.27,3.33-.2,.64-.91,.42-2.16-.49-2.79-.23-.16-.49-.27-.77-.33-3.05-.87-1.9-1.9-.71-3.65,6.67-9.8,13.19-19.7,19.75-29.57,3.64-5.91,8.71-10.8,14.75-14.21,6.91-3.5,14.94-4.07,22.28-1.58,3.87,1.07,7.34,3.25,9.98,6.26,1.11,1.17,2.4,2.15,3.83,2.9,.67,.37,2.19,.46,2.47,.06,.67-.95,1-2.09,.94-3.25-.05-.57-1.29-1.14-2.07-1.51-.45-.22-1.08,0-1.61-.06-1.25-.14-3.35,.03-3.58-.54-.81-1.81-1.12-3.8-.89-5.77,1.61-8.54,9.74-9.24,14.95-7.25,.92,.35,1.86,.64,3.08,1.08-.32-2.47-.64-4.71-.95-6.95-.64-4.8,.43-9.66,3.03-13.74,3.52-6.18,10.25-9.81,17.34-9.37,4.45,.07,4.53,0,4.42-4.6-.21-2.69,.47-5.38,1.93-7.65,1.86-2.75,5.07-4.27,8.37-3.96,3.76-.17,7.13,2.29,8.11,5.93,.31,2.07,.45,4.17,.43,6.26,1.21-1.45,2.22-2.54,3.1-3.72,4.22-6.43,11.27-10.45,18.95-10.81,8-.15,15.59,2.14,19.72,9.89,3.52,6.38,2.75,14.27-1.95,19.84-2.45,2.84-5.05,6.01-9.1,6.26-4.6,.29-9.34,1.48-13.74-1.45-2.81-1.94-4.59-5.07-4.81-8.48-1.07-5.35,.74-10.86,4.77-14.54,2.26-2.27,5.53-3.23,8.67-2.54,5.46,.03,9.86,4.48,9.83,9.94s-4.48,9.86-9.94,9.83c-.36,0-.72-.02-1.07-.06-2.39-.44-4.67-.73-5.57-3.59-.83-3.1,0-6.4,2.19-8.74,1.8-1.63,4.58-1.49,6.21,.32h0c1.53,2.03,1.56,4.81,.08,6.86-1.52,.95-3.48,.85-4.9-.24-1.05-1.61-.3-2.71,1.2-3.54,.28-.15,.42-.57,.64-.86l-.48-.64c-.94,.67-2.39,1.15-2.71,2.04-.84,1.6-.3,3.58,1.25,4.52,3.03,1.57,6.75,.39,8.32-2.64,.12-.23,.23-.47,.32-.72,0-2.52-1.13-4.91-3.07-6.52-4.75-3.54-9.36-1.85-10.9,3.95-1.07,4.32,.43,8.86,3.85,11.7,4.06,2.16,9.01,1.77,12.69-1,5.67-4.59,6.54-12.9,1.96-18.57-.25-.31-.51-.6-.78-.88-2.53-2.39-5.76-3.9-9.21-4.31-9.37-1.93-16.03,2.99-20.5,10.31-3.28,4.33-4.93,9.67-4.65,15.09,.44,3.4,1.31,6.74,1.98,10.11,1.67,8.35,.73,17-2.69,24.8-1.13,2.65-2.61,5.15-3.94,7.76,.05,.09,.09,.3,.2,.34,4.22,1.7,8.37,3.63,12.68,5,2.72,.67,5.57-.44,7.13-2.77,1.3-1.71,1.43-4.04,.32-5.88-.16,.44-.29,.61-.27,.75,.66,4.57-1.33,6-5.73,5.71-2.34,.11-4.33-1.69-4.45-4.03-.04-.79,.14-1.58,.53-2.27,2.11-5.56,6.07-6.92,11.09-3.92,3,1.79,3.22,8.42,.5,11.23-1.41,1.43-2.92,2.76-4.52,3.96-1.03,.79-1.04,1.23,.11,1.75,6.18,2.8,11.68,7.01,18.56,8.37,10.18,2.31,20.32-4.07,22.63-14.25,.06-.28,.12-.55,.17-.83,1.35-5.54,1.01-11.35-.97-16.69-1.42-4.65-5.06-8.28-9.71-9.69-7.03-2.1-14.44,1.89-16.54,8.93-.21,.69-.36,1.39-.45,2.1-.15,.9-.36,1.8-.46,2.71-.22,5.8,3.72,10.93,9.38,12.2,2.75,.8,5.7,.48,8.22-.89,2.84-1.6,4.41-4.78,3.95-8.01-.35-3.29-2.59-6.08-5.73-7.13-2.55-1.14-5.54-.72-7.67,1.09-1.89,1.86-2.34,4.74-1.09,7.09,1.16,2.21,3.82,3.17,6.12,2.19,1.08-.27,1.74-1.37,1.46-2.45-.11-.44-.37-.84-.74-1.11-.47,.86-1.07,1.64-1.77,2.33-1.34,.73-3.02,.24-3.75-1.1-.19-.34-.3-.72-.33-1.11-.15-2.16,.84-5.35,3.37-5.46,3.24-.43,6.25,1.75,6.85,4.96,.51,3.68-2.06,7.08-5.75,7.58-.26,.04-.51,.06-.77,.06-3.98,.24-7.54-2.45-8.39-6.34-.97-4.64,1.38-9.34,5.68-11.34,4.91-2.62,11.01-.76,13.63,4.15,.17,.33,.33,.66,.47,1,2.45,4.66,2.31,10.25-.37,14.78-1.67,3.22-4.99,5.25-8.61,5.28-5.35,.52-10.67-1.3-14.59-4.99-4.95-4.94-6.37-12.42-3.57-18.83,1.77-6.33,6.96-11.12,13.41-12.38,5.67-1.12,11.55,.19,16.21,3.61,5.78,4.02,9.21,10.64,9.13,17.68,.62,6.96-.95,13.93-4.47,19.97-6.11,9.74-18.18,13.92-29,10.03-6.47-2.37-12.52-5.75-17.92-10.02-4.58-3.76-10.09-6.2-15.95-7.06-3.03-.4-6.11-.16-9.04,.71-9.69,3.36-20.33,2.55-29.39-2.25-2.58-1.18-5-2.67-7.53-3.96-.41-.21-1.29-.36-1.38-.19-.28,.49-.38,1.05-.3,1.61,1.79,12.06-3.93,22.76-15.96,25.99-5.95,1.83-12.42,.39-17.04-3.78-.15-.13-.42-.14-1.03-.32,.12,.62,.29,1.22,.5,1.81,3.15,7.43,1.38,16.03-4.43,21.63-1.93,1.5-4,2.81-6.17,3.92-.97,.57-1.53,1.05-.54,2.07,3.7,4.16,8.34,7.35,13.55,9.32,2.21,1.14,4.93,.27,6.07-1.94,.1-.2,.19-.4,.26-.61,.72-1.5,.08-3.29-1.41-4.01-.18-.09-.38-.16-.57-.21-1.37-.5-2.79-.81-4.23-.94-1.82-.04-2-.97-1.96-2.38-.31-2.69,.21-5.4,1.47-7.79,1.63-2.38,4.23-2.13,6.47-2.36,2.54-.19,5.1-.02,7.59,.52,1.26,.28,2.32,1.12,2.9,2.27,.86,2.58,1.36,5.26,1.47,7.97,.05,2.13-1.89,2.62-3.8,2.64-3.75,.05-3.76,.07-4.93,3.76-.57,1.8-1.1,3.62-1.68,5.55,5.16,3.7,11.06,6.23,17.29,7.41,9.88,2.61,20.31,2.34,30.03-.81,7.6-2.46,13.15-9,14.34-16.9,1.68-8.13-.72-16.57-6.44-22.58-2.61-3.43-6.18-6-10.26-7.41-9.02-2.53-18.39,2.74-20.91,11.77-.19,.68-.34,1.38-.44,2.08-.73,4.4,.17,8.92,2.54,12.7,3.68,5.83,11.39,7.58,17.22,3.91,1.85-1.17,3.36-2.8,4.38-4.73,2.44-3.94,2.36-8.93-.2-12.79-2.59-3.18-7.16-3.89-10.58-1.64-3.44,1.83-5.21,5.76-4.3,9.56,1.15,2.39,3.37,4.08,5.97,4.56,2.3,0,4.3-1.55,4.89-3.76,0-1.45-.45-2.87-1.29-4.06-.24-.42-1.54-.23-2.44-.02,1.45,.94,3.22,1.48,2.58,3.65-.31,1.59-1.85,2.62-3.43,2.31h-.05c-1.86-.18-3.49-.8-3.83-2.69-.84-3.56,1.37-7.12,4.93-7.96,.58-.14,1.18-.19,1.78-.17,2.46,.21,4.42,2.13,4.7,4.58,.81,3.76-.41,9.17-4.61,10.75-4.67,1.41-9.71-.28-12.59-4.22-4.51-6.71,.35-15.82,7.87-17.99,5.91-1.71,15.37,1.69,17.53,8.68,1.75,5.18,.88,10.89-2.34,15.31-3.37,5.28-9.17,8.49-15.43,8.56-8.72,.46-16.48-5.52-18.26-14.07-2.24-7.64-.79-15.9,3.93-22.32,3.46-4.99,9.03-8.11,15.09-8.45,6.12-.84,12.34,.71,17.35,4.33,5.87,4.23,9.91,10.55,11.29,17.66,1.54,6.48,1.37,13.25-.51,19.64-3.41,10.63-8.95,16.72-20.43,19.16-4.2,.97-8.5,1.44-12.81,1.38-11.83-.25-23.49-2.89-34.26-7.78-7.57-3.54-14.93-7.52-22.45-11.14-6.58-3.31-13.75-5.28-21.09-5.8-.83-.12-1.66-.31-2.46-.57,.39-1.55,.63-3.14,.72-4.74-.29-2.46-2.32-4.36-4.79-4.49-2.54-.19-4.75,1.72-4.93,4.26,0,.12-.01,.23-.01,.35-.07,2.04-.79,2.48-2.63,2.47-1.44,.12-2.86,.39-4.24,.82-1.89,.38-3.2,2.11-3.06,4.03-.3,6.33,1.39,12.6,4.83,17.92,4.61,7.09,7.46,15.17,8.31,23.58,.16,2.29,.64,4.55,.89,6.83-.09,2.32,1.73,4.28,4.05,4.37,.09,0,.17,0,.26,0h.47c7.85,.15,15.7,.25,23.54,.48,8.44,.24,16.89,.58,25.33,.93,6.34,.26,12.68,.6,19,.94,.83,.08,1.66,.22,2.48,.41,.23,1.46,.38,2.68,.64,3.86,.02,.08,1.27,.07,1.31-.07,.32-1.13,.47-2.31,.72-3.76,4.45,0,9.28-.05,14.11,0,7.69,.11,15.38,.28,23.08,.46,5.66,.13,11.33,.32,16.99,.46,6.05,.16,12.11,.3,18.17,.47,4.89,.14,9.77,.24,14.65,.52,1,.06,2.53,.62,2.79,1.32,.44,1.19,.31,2.51-.36,3.59-1.72,1.75-3.76,3.14-6.01,4.11-2.96,1-6.02,1.68-9.13,2.05-2.6,.34-4.97,1.69-6.59,3.76-2.05,2.86-4.45,5.44-7.15,7.69-2.32,1.6-5.05,2.47-7.87,2.51-8.49-.24-16.97,.6-25.25,2.5-1.85,.46-3.65,1.13-5.35,1.99-5.03,2.73-10.84,3.69-16.48,2.72-4.14-.69-8.37-.87-12.59-1.29,.36-1.25,.58-2.14,.87-3.02,1.41-3.22-.06-6.98-3.28-8.39-.54-.24-1.11-.4-1.69-.48-3.45-.9-7.45,1.08-7.77,6.83-.22,3.93-.28,3.71-4.16,3.98-6.29,.43-12.56,1.4-18.84,1.72-4.57,.25-9.16,.11-13.7-.43-6.39-.65-12.72-1.76-18.95-3.34-7.48-2.07-14.72-5.01-22.04-7.65-4.73-1.71-9.3-3.91-14.12-5.23-5.84-1.25-11.91-.74-17.46,1.45-6.76,2.17-13.41,4.69-20.21,6.74-3.1,.85-6.29,1.35-9.5,1.48-3.81,.24-7.66-.19-11.46,.11-7.73,.6-15.5,1.2-23.19,2.32-11.2,1.63-22.33,3.73-33.49,5.59-3.22,.7-6.49,1.14-9.78,1.29-2.81-.16-5.58-.7-8.24-1.61-3.37-.97-6.65-2.25-9.96-3.42-1.86-.37-3.29-1.87-3.59-3.74-.27-1.96-2.11-2.44-3.61-2.7-5.43-.93-10.89-1.71-16.36-2.44-4.47-.73-8.68-2.57-12.24-5.36-4.28-3.09-8.65-6.06-12.96-9.13-1.34-.97-3.38-1.77-2.74-3.73,.22-.64,2.52-.86,3.86-.88,7.41-.08,14.81-.04,22.36-.04l.64,4.37c.62,3.61,4.05,6.03,7.65,5.41,3.09-.53,5.39-3.16,5.5-6.29,.31-4.1,.64-4.38,4.72-4.43,11.44-.13,22.87-.29,34.31-.46,9.95-.14,19.91-.3,29.86-.47,8.47-.14,16.95-.29,25.42-.48,4.42-.1,8.84-.19,13.25-.49,3.72-.26,4.69-.97,6.08-4.62,2.62-6.27,3.76-13.06,3.31-19.84,.07-4.41-1.48-8.7-4.36-12.04-3.15-2.85-7.63-3.68-11.59-2.16-5.76,1.59-11.22,4.1-16.18,7.43-6.03,3.77-13.37,4.79-20.2,2.8-6.9-1.87-13.61-4.51-20.29-7.06-6.2-2.48-13.07-2.73-19.43-.7-6.2,2.45-13.06,2.67-19.4,.63-5.27-2.04-9.79-5.63-12.97-10.31-8.98-12.79-7.91-25.84-.67-38.95,.64-1.14,1.29-2.25,1.93-3.39,1.84-3.02,.9-6.95-2.1-8.82-2.94-2.67-7.49-2.46-10.16,.48h-.01c-2.06,2.2-1.97,5.64,.22,7.71,.55,.52,1.2,.92,1.91,1.17,1.69,.54,3.53-.11,4.52-1.58,.4-.49-.2-1.83-.42-2.77-.04-.14-.55-.16-.95-.27-.32,.68-.47,1.67-.93,1.84-.8,.3-1.7,.25-2.47-.14-.54-.6-.75-1.43-.55-2.21,.58-1.66,1.36-3.29,3.48-3.59s3.26,.99,4.19,2.59c1.87,2.77,1.15,6.54-1.63,8.42-.17,.11-.34,.22-.51,.31-3.38,1.83-7.6,.75-9.69-2.47-2.01-4.11-1.29-9.04,1.82-12.4,3.13-3.48,8.33-4.15,12.24-1.57,1.71,1.27,3.14,2.89,4.19,4.75,1.93,3.1,1.76,3.04,5.15,1.93,3.55-1.37,7.25-2.33,11.02-2.85,6.12-.49,11.27,2.56,16.42,5.65,4.42,2.63,7.21,7.33,7.41,12.47,.13,.78,.3,1.55,.52,2.32l10.98-15.24c-1.88-.36-3.78-.59-5.69-.69-7.09,.35-13.71-3.56-16.83-9.94-.48-.88-1.07-1.68-1.52-2.58-.68-1.45-2.24-2.26-3.82-2-4.54,.31-9.08,.71-13.62,.9-3.31,.14-6.64,.03-9.62,.03-1.15-2.09-.1-4.96-2.61-4.96-2.58,0-1.52,2.68-1.85,4.07-3.81,.93-7.52,2.2-11.09,3.82-4.71,2.86-9.23,6-13.55,9.42-6.5,5.43-14.42,8.91-22.82,10.02-14.06,1.09-29.1-6.52-32.06-23.41-1.35-6.33-1-12.91,1.02-19.07,2.64-7.37,7.23-13.2,15.21-14.89,7.62-1.61,15.46-2.53,22.5,2.32,4.17,3.25,6.89,8,7.58,13.24,1.44,6.46,.05,13.23-3.82,18.6-2.5,3.81-6.64,6.22-11.18,6.53-3.32,.39-6.69-.12-9.75-1.47-4.63-2.01-7.8-6.39-8.26-11.42-.95-4.43-.16-9.05,2.19-12.92,3.84-4.94,10.39-6.9,16.31-4.88,2.66,.84,4.58,3.16,4.9,5.93,.47,3.49,.48,7.02,.03,10.51-.58,3.65-3.76,6.31-7.45,6.24-4.09,.76-8.04-1.89-8.89-5.96-.56-2.21-.58-4.52-.06-6.74,.56-2.59,2.81-4.45,5.46-4.52,2.32,.25,4.32,1.76,5.19,3.94,.87,1.8,.94,3.89,.18,5.74-.5,1.73-2.28,2.76-4.04,2.33-1.89-.14-3.3-1.78-3.17-3.66,.01-.15,.03-.29,.06-.44,.32-1.07,1.56-1.87,2.8-3.26-1.1,.19-2.12,.06-2.58,.5-.87,.7-1.46,1.7-1.65,2.81,.37,3.16,3.23,5.43,6.39,5.06,3.16-.37,5.43-3.23,5.06-6.39-.04-.31-.1-.61-.18-.91-1.53-5.28-4.16-7.73-8.83-7.69-3.32,.17-6.18,2.39-7.17,5.56-1.31,5.93,1.33,12.02,6.55,15.12,3.27,1.83,7.32,1.55,10.31-.72,4.68-2.79,7.49-7.89,7.34-13.34-.22-7.58-5.62-14.02-13.06-15.53-10.8-3.03-18.46,4.65-21.4,11.81-1.42,3.3-2.2,6.83-2.31,10.42-.13,5.64,1.69,11.16,5.15,15.62,4.67,6.31,12.41,9.57,20.19,8.5,7.64-.92,14.91-3.79,21.11-8.35,1.56-1.1,3.06-2.29,4.49-3.57,.97-.86,1.35-2.03-.09-2.82-6.4-3.54-7.37-9.19-6.49-15.75,.31-5.14,4.73-9.05,9.86-8.74h.08c3.39,.32,6.18,2.83,6.85,6.17,.94,3.42-.78,7.01-4.04,8.4-2.03,.87-4.39,.43-5.98-1.11-1.29-1.86-1.49-4.28-.51-6.32,1.15-1.41,3.06-1.96,4.79-1.37,.54,.4,.91,1,1.01,1.67,.05,.42-.5,1.01-.91,1.36-.63,.46-1.29,.87-1.98,1.23,.41,1.12,1.65,1.7,2.77,1.29,.29-.1,.55-.27,.77-.48,1.27-.97,2.68-2.06,1.42-4.05-1.23-2.04-3.59-3.1-5.94-2.66-2.94,.35-5.22,2.74-5.42,5.69-.44,4.94,2.18,9.65,6.61,11.89,1.33,.46,2.76,.54,4.14,.24,3.51-.93,6.94-2.19,10.6-3.39-1.16-1.97-2.11-3.7-3.17-5.37-2.86-4.74-4.41-10.16-4.51-15.69-.15-3.11-.14-6.24,0-9.36,.21-4.62,.94-9.25,.82-13.85,.14-6.8-2.05-13.45-6.21-18.83-3.42-4.49-8.39-7.53-13.94-8.53-6.13-1.14-12.43,.67-17.03,4.87-4.25,3.22-6.76,8.23-6.8,13.56-.6,7.35,4.8,13.82,12.14,14.54,6.17,.78,12.24-2.08,15.55-7.35,2.08-5.2-.35-11.11-5.47-13.35-2.68-1.13-5.62-1.45-8.48-.91-3.74,.59-6.3,4.1-5.71,7.84,.21,1.33,.8,2.56,1.71,3.56,2.07,2.9,5.74,4.17,9.16,3.18,2.14-.95,3.53-3.07,3.54-5.41-.34-2.54-2.48-4.45-5.04-4.51-2.16-.14-2.86,.71-2.33,2.43,1.26-.4,2.55-1.24,3.67-1.06,2.11,.32,2.08,2.25,1.77,3.89-.62,1.97-2.5,3.27-4.57,3.15-2.45-.2-4.4-2.13-4.63-4.58-.15-2.85,1.55-5.48,4.21-6.52,2.66-.96,5.63-.28,7.61,1.73,2.18,2.4,2.92,5.78,1.93,8.87-1.15,5.82-7.76,8.05-13.89,5.4-3.53-1.34-5.99-4.57-6.36-8.32-.82-4.35,1-8.78,4.64-11.3,6.29-4.55,16.28-3.7,20.45,1.42,3.34,4.14,4.34,9.71,2.64,14.75-3.07,9.06-12.33,14.5-21.73,12.75-8.45-1.75-14.01-6.44-15.61-14.78-1.26-7.16,.54-14.52,4.96-20.29,8.1-11.5,27.34-12.37,36.73-4.16,2.25,1.97,4.25,4.22,6.38,6.34,.37,.37,.79,.69,1.32,1.16,.5-.71,.92-1.48,1.23-2.29,.72-3.65,4.12-6.14,7.82-5.73,6.63,.16,9.98,2.18,10.39,9.52,.21,3.71,1.01,4.86,5.07,4.98,8.39,0,15.98,4.96,19.37,12.63,1.31,2.92,1.46,6.22,.4,9.24-.88,3-2.11,5.89-3.19,8.82-1.51,3.74-5.04,6.27-9.07,6.49-8.01,1.68-15.94-3.15-18.13-11.03-1.98-5.73,.72-12.02,6.23-14.53,4.34-1.83,9.32-1.29,13.16,1.43,3.47,2.46,3.92,6.61,2.61,11.41-.97,3.46-4.15,5.02-8.27,5.4-4.04,.44-7.67-2.47-8.12-6.51-.15-1.39,.09-2.79,.71-4.05,1.08-2.39,3.59-3.8,6.19-3.48,2.3-.09,4.37,1.4,5.01,3.61,.67,2.12-.44,4.39-2.52,5.18-.88,.34-1.83,.52-3.02,.86,1.49,1.29,3.74,1.18,5.09-.26,1.75-1.33,3.34-2.95,2.58-5.49-1.26-3.43-4.87-5.4-8.43-4.6-1.34,.26-2.66,.63-3.93,1.1-4.79,2.11-4.79,6.69-2.37,10.63,3.43,4.83,9.66,6.76,15.22,4.72,3.74-1.68,6.16-5.4,6.19-9.5,.95-8.62-4.98-14.9-13.39-16.21-6.27-1.3-12.79,.56-17.43,4.97-2.44,2.67-4.04,6.01-4.58,9.59-2.01,8.89-1.13,18.19,2.52,26.54,2.35,5.19,7.13,8.88,12.75,9.83,5.66,1.58,11.65,1.58,17.31,0,3.54-.97,4.3-1.9,4.19-6.48-.28-6.2,1.72-12.29,5.64-17.11,3.25-3.7,7.56-6.33,12.34-7.53,1.45-.45,2.94-.78,4.7-1.24-.38-.76-.85-1.47-1.39-2.12-3.31-2.91-6.05-6.43-8.05-10.36-.47-.98-1.17-1.83-2.02-2.5-5.54-4.25-8.77-10.41-13.06-15.69-5.15-6.34-10.66-12.45-19.22-13.68-4.13-.24-8.28-.01-12.36,.68-3.66,.32-7.3,1.08-10.97,1.22-3.25,.28-6.53,.05-9.71-.66-6.15-1.72-10.96-6.51-12.7-12.65-1.51-4.17-2.43-8.52-2.73-12.94-.18-6.32,1.39-12.57,4.54-18.06,2.29-4.58,6.17-8.17,10.9-10.11,8.04-2.94,16.18-4.54,24.02,.72,3.92,2.94,6.36,7.44,6.69,12.33,.88,6.19-.46,12.49-3.78,17.78-1.98,2.46-1.59,6.05,.86,8.03,.12,.1,.25,.19,.38,.28,2.07,1.71,5.14,1.42,6.86-.65,.46-.56,.8-1.22,.97-1.93,.49-1.77-.46-3.62-2.19-4.26-.84-.43-2.38,.51-3.6,.83,.05,.32,.11,.62,.16,.92h3.32c.64,3.43-.09,4.38-3.18,4.01-.49-.06-1.29-.51-1.33-.86-.47-1.98-.62-4.02-.44-6.05,.46-2.35,5.33-2.68,7.58-.71,2.89,2.95,2.83,7.69-.12,10.57-.54,.53-1.16,.97-1.83,1.32-3.48,2.11-8.02,1-10.12-2.49-.39-.64-.68-1.34-.86-2.08-.79-2.45-1.82-2.82-4.01-2-4.33,1.96-9.34,1.69-13.43-.75-4.85-3.03-7.41-8.67-6.5-14.31,.23-5.02,2.99-9.58,7.33-12.12,3.62-2.09,8.07-2.12,11.73-.09,3.22,1.82,5.18,5.27,5.09,8.98,.75,3.31-.26,6.77-2.68,9.15-3.15,2.51-7.48,2.92-11.04,1.04-3.26-2.21-4.51-6.41-2.98-10.04,.72-2.26,2.67-3.91,5.01-4.25,1.92-.24,3.78,.8,4.57,2.58,1.59,2.01,1.64,4.84,.13,6.91-1.05,.9-2.25,1.61-3.54,2.1,2.4,.64,4.94-.36,6.25-2.47,1.23-2.23,.97-4.98-.66-6.93-.71-1.2-1.64-2.25-2.74-3.09-4-2.7-7.6-1.49-9.66,2.97-2.03,4.79-.8,10.34,3.07,13.82,4.29,3.26,10.41,2.43,13.67-1.86,.46-.61,.85-1.27,1.16-1.97,3.1-6.02,2.18-13.32-2.31-18.38-4.05-4.46-10.56-5.72-15.99-3.09-7.48,3.42-12.75,10.35-14.04,18.47-2.04,8.71,1.07,17.82,8.01,23.45,3.87,2.93,8.86,3.98,13.58,2.84,5.63-.75,11.25-1.67,16.9-2.01,2.83,.03,5.64,.47,8.34,1.31,2.81,.69,2.87,.79,3.86-2.14,.25-.72,.6-1.41,.81-2.14,1.77-6.4,6.63-6.96,11.59-6.33,.89,.11,1.77,.25,2.9,.42-1.65-3.05-3.09-5.82-4.67-8.52-.15-.25-1.15-.24-1.61-.04-1.93,.86-3.76,2.03-5.74,2.74-4.72,1.36-9.64-1.36-11.01-6.07-.09-.3-.16-.61-.21-.92-.43-1.93-.45-3.92-.08-5.86,.31-4.05,3.85-7.08,7.91-6.77,.19,.01,.37,.04,.56,.07,4.47,.13,7.98,3.86,7.85,8.33,0,.29-.03,.59-.07,.88-1.4,2.53-4.1,4.05-6.99,3.94-3.65,.03-4.23-2.95-3.3-5.39,.26-1.2,1.45-1.96,2.65-1.7,.08,.02,.16,.04,.25,.07,1.71,.49,.14,1.65,.36,2.46,.15,.56,.43,1.52,.72,1.55,1.42,.08,2.64-1.01,2.71-2.43,.01-.27-.01-.53-.08-.79-.58-2-2.4-3.37-4.48-3.38-1.84-.29-3.64,.67-4.43,2.35-1.22,2.36-1,5.21,.57,7.36,1.67,2.26,4.56,3.26,7.27,2.52,3.03-.69,5.05-3.54,4.7-6.62m221.15,67.93c.63,2.15,2.51,3.7,4.75,3.9,5.39,.56,8.53-5.34,7.73-9.49-.81-2.72-3.14-4.71-5.96-5.08-2.43-.01-4.6,1.49-5.46,3.76-.71,1.86-.13,3.96,1.44,5.2,1.47,1.32,3.61,1.56,5.33,.61,2.12-1.1,.43-3.06,.44-4.62,0-.38-.74-.84-1.23-1.09-.17-.09-.84,.28-.88,.52-.08,.49,0,1,.23,1.44,.35,.51,.75,.99,1.2,1.41-1.34,1.2-2.98,2.15-3.95,.28-.56-1.4-.47-2.97,.25-4.3,.91-1.07,2.27-1.65,3.67-1.57,1.3,.32,2.36,1.24,2.86,2.49,.37,1.74,.33,3.54-.1,5.26-.45,2.28-2.51,3.88-4.83,3.75-2.1,0-4.1-.87-5.53-2.4-.46-1.84-.76-3.71-.9-5.6,.31-4.04,3.24-7.39,7.2-8.24,3.27-.4,6.48,1.11,8.24,3.89,2.41,4.36,2.37,9.66-.1,13.99-1.62,2.87-4.58,4.71-7.86,4.9-6.41,.6-12.08-4.11-12.68-10.51-.06-.67-.07-1.34-.01-2.01,.08-1.72,0-3.45,0-5.18-4.95,6.25-12.1,8.32-18.84,11.53,.57,.73,1.22,1.4,1.93,1.99,7.9,5.53,17.31,8.5,26.96,8.49,8.71,.16,15.91-6.77,16.07-15.48,.06-3-.74-5.95-2.31-8.51-2.14-4.26-6.89-6.54-11.56-5.56-3.99,.54-7.26,3.46-8.25,7.36-1.03,3.13-.19,6.58,2.16,8.89M240.7,58.64c-3.13-1.29-6.73,.09-8.19,3.15-1.3,2.07-.78,4.79,1.2,6.22-.24-2.92-.9-6.07,2.17-7.92,1.56-.7,3.2-1.21,4.89-1.51,2.49,2.13,3.81,5.33,3.54,8.6-.47,4.26-4.38,8.56-8.05,7.92-5.36-.58-9.31-5.29-8.95-10.67,.35-5.62,4.51-10.28,10.06-11.24,4.87-.37,9.54,1.98,12.14,6.12,2.28,2.98,3.18,6.8,2.47,10.48-.8,2.61-1.8,5.15-3.01,7.6-.24,.58-.37,1.2-.84,2.74,7.86-3.99,13.07,1.16,19.03,4,.29-.75,.45-1.55,.47-2.35-1.61-8.4-3.84-16.45-9.93-23.02-5.47-5.92-11.43-10.23-20.02-9.36-3.87,.3-7.48,2.05-10.11,4.9-5.93,6.54-6.47,15.53,1,21.38,5.41,4.24,13.11,4.36,17-2.6,3.01-5.39,1.3-13.23-4.89-14.39m-40.13,209.16c-.25-2.17-.58-3.76-.59-5.35-.03-3.02-.05-6.05,.23-9.06,.94-5.13,2.83-10.05,5.56-14.49,2.61-4.78,2.21-10.63-1-15.02-1.34-1.95-2.8-3.83-4.03-5.85-4.33-7.03-5.79-15.46-4.08-23.54,1.93-10.1,11.59-19.15,23.68-15.78,8.93,2.05,14.51,10.95,12.46,19.89-.06,.26-.13,.52-.2,.78-.87,2.97-1.93,5.89-3.17,8.73,.59-.12,1.18-.2,1.78-.24,2.67-.28,5.36-.21,8.02,.22,4.11,1.17,7.32,8.53,5.9,12.54-.16,.45-1.01,.86-1.59,.93-1.91,.25-3.85,.27-5.75,.56-.73,.14-1.37,.57-1.78,1.2-.19,.36,.28,1.36,.73,1.71,1.28,1.06,2.69,1.97,4.19,2.7,4.34,1.48,8.11,4.28,10.78,8.01,4.86,7.88,6.11,17.47,3.42,26.33-1.43,6.6-6.23,11.97-12.64,14.12-2.95,.69-6,.89-9.02,.6-3.41-.04-6.68-1.4-9.13-3.78-6.2-6.7-7.97-16.37-4.55-24.83,2.85-7.19,8.01-10.31,14.49-9.62,4.51,.49,8.5,2.45,9.5,7,.73,2.88,1.18,5.83,1.34,8.8,.66,5.03-2.88,9.65-7.91,10.32-.75,.1-1.51,.11-2.26,.02-4.58,.08-8.43-3.4-8.83-7.95-.6-4.09,1.53-8.09,5.26-9.88,2.04-.78,4.33-.41,6.02,.97,1.63,2.41,1.72,5.55,.22,8.05-.59,.8-1.46,1.36-2.43,1.57-1.28,.03-2.56-.1-3.81-.39,.56,2.39,2.53,3.26,5.15,2.15,4.19-2.09,5.88-7.18,3.79-11.37-.07-.14-.14-.27-.22-.41-2.48-3.69-7.48-4.68-11.17-2.2l-.06,.04c-4.73,2.97-6.98,8.68-5.54,14.08,.79,3.8,3.06,7.13,6.31,9.26,6.78,3.72,15.3,1.24,19.02-5.55,.08-.15,.16-.3,.23-.44,2.34-4.77,2.86-10.23,1.46-15.36-1.59-6.84-5.25-12.31-12.29-14.17-8.7-2.45-18.03,.28-24.03,7.04-7.21,7.54-8.3,17.08-5.8,26.92,2.42,9.96,10.27,17.69,20.26,19.97,6.98,2.42,14.72,.89,20.25-4,1.42-1.23,2.98-2.31,4.87-3.77,.73,2.18,1.33,3.94,1.83,5.42-2.13,.72-4.17,1.69-6.08,2.9-3.15,2.8-4,7.37-2.07,11.12,1.38,3.33,4.79,5.35,8.37,4.97,3.87,.06,7.42-2.11,9.13-5.58,1.71-4.01,.21-8.66-3.52-10.91-2.04-1.44-2.11-2.06-.32-3.74,.97-.89,2.05-1.64,2.98-2.56,1.1-1.09,1.54-2.6,.37-3.7-1.42-1.23-2.99-2.27-4.68-3.09-1.01-.41-2.07-.71-3.15-.89,.57-2.05,.99-3.74,1.51-5.41,2.16-6.41,3.24-13.14,3.19-19.91-.06-2.03,.06-4.06-.03-6.08-.09-1.96,.64-2.96,2.69-2.8,.62,.05,1.25,0,1.87,0,4.69,.09,8.56-3.64,8.65-8.33,0-.22,0-.44-.01-.66-.4-4.25-5.93-8.63-9.44-7.09-2.06,.78-4.17,1.44-6.3,1.98-3.5-14.22-11.44-25.92-20.45-37.11,1.99-.31,3.42-.6,4.87-.73,2.22-.2,2.37-1.77,2.15-3.35-.2-1.44-2.36-2.33-3.82-2.11-2.62,.39-3.03,2.96-4.71,4.56-2.48-2.05-5.08-3.95-7.79-5.69-5.56-3.17-11.25-6.15-17-8.95-6.74-3.32-14.04-5.35-21.53-5.99-8.47-.89-17.03,.2-25,3.19-9.2,3.19-15.65,11.52-16.42,21.23-.64,7.37,2.67,14.52,8.7,18.81,6.56,5.47,20.13,6.21,25.64-2.02,3.43-5.11,5.91-10.38,4.46-16.75-1.44-7.44-8.63-12.3-16.07-10.86-.57,.11-1.14,.26-1.69,.44-6.6,2.25-10.18,9.37-8.05,16.01,.97,4.8,5.65,7.9,10.45,6.93,.89-.18,1.75-.5,2.55-.94,2.59-1.62,4.09-4.52,3.94-7.57-.21-2.67-2.19-4.87-4.83-5.35-1.59-.07-3.13,.55-4.23,1.69-1.05,1.14-.97,2.92,.17,3.97,.25,.23,.54,.41,.85,.54,.03-.75,.11-1.34,.08-1.93-.07-1.29,.2-2.33,1.67-2.62,1.42-.37,2.87,.47,3.24,1.89v.04c.74,2.79-.69,5.68-3.34,6.8-2.31,1.16-5.13,.23-6.3-2.08-.16-.32-.29-.66-.37-1.01-.47-1.78-.62-3.64-.45-5.47,.05-3.79,2.83-6.98,6.58-7.54,4.71-.71,8.2,.1,10.4,4.16,3.73,6.87,1.56,15.45-4.98,19.73-4.75,3.07-12.44,3.78-16.58-1.66-2.47-3.16-3.98-6.96-4.34-10.95-.93-10.8,6.67-21.61,19.19-20.8,5.59,.2,10.76,3.01,13.97,7.59,4.42,5.96,4.34,12.59,3.08,19.43-.82,5.37-3.54,10.27-7.67,13.8-1.44,1.21-2.99,2.29-4.92,3.76,1.06,.44,1.55,.7,2.08,.86,3.37,.85,6.32,2.89,8.31,5.74,2.39,4.17,3.39,8.99,2.84,13.76,.13,5.58-2.68,10.82-7.41,13.8-4.97,3.17-13.68,3.39-17.75-1.23-4.98-5.64-5.38-17.35,.69-22.97,3.68-3.41,12.67-3.67,15.25,1.66,.95,2,1.51,4.16,1.66,6.36,.6,4.39-1.91,8.61-6.04,10.19-2.45,.97-5.24,.24-6.92-1.79-1.66-3.52-1.37-7.66,.77-10.91,1.25-1.24,3.19-1.47,4.7-.57,1.57,.83,2.35,2.63,1.91,4.34-.19,1.87-1.39,2.38-3.11,2.22-.3-.03-.64,.34-.97,.54,1.5,1.54,3.94,1.66,5.58,.28,1.28-2.25,1.23-5.03-.14-7.22-1.28-2.24-3.81-3.45-6.36-3.05-4.83,1.05-6.74,3.64-6.68,9.2,0,3.8,2.34,7.21,5.89,8.59,3.19,1.75,7.13,1.36,9.92-.98,4.25-3.07,6-8.57,4.29-13.53-2.58-8.37-9.74-13.39-18.88-8.96-4.86,2.32-8.34,6.8-9.37,12.09-1.69,6.38-.92,13.17,2.17,19,3.61,6.71,10.37,8.22,17.42,8.9,5.1,.49,10.18,1.33,15.25,2.11,1.64,.25,3.22,.82,5.39,1.39m63.12-141.91l-.66-.24c-.42,.3-.82,.63-1.19,1-1.99,2.25-3.86,4.62-5.94,6.79-3.57,3.71-7.18,7.39-10.92,10.92-8.16,8.42-9.36,21.38-2.9,31.17,4.35,5.7,8.98,11.17,13.89,16.39,3.28,3.77,6.65,3.16,10.11,1.02,1.57-1.14,2.92-2.55,4-4.16,2.87-3.89,4.64-8.5,5.09-13.31,.94-5.34-.84-10.8-4.75-14.56-2.82-2.79-6.66-4.32-10.63-4.23-4.65-.25-8.98,2.37-10.93,6.6-1.76,4.05-1.72,8.66,.11,12.68,1.36,4.63,5.91,7.56,10.69,6.9,4.41-.87,7.81-4.39,8.52-8.83,.54-3.36-.77-6.75-3.41-8.88-2.69-2.65-7.02-2.61-9.67,.08-.87,.89-1.48,1.99-1.77,3.2-.82,2.93,.36,6.06,2.9,7.73,.96,.62,2.14,.82,3.25,.55,1.69-.28,2.83-1.88,2.56-3.57l-4.58-1.37c-.07-1.14-.06-2.29,.05-3.44,.11-.67,.59-1.77,1.02-1.82,1.59-.4,3.25-.37,4.83,.07,1.26,.78,2.11,2.08,2.32,3.54,.12,1.98-.18,3.97-.86,5.83-1.25,3.72-5.28,5.73-9,4.48-.81-.27-1.56-.68-2.22-1.22-3.27-3.38-4.4-8.3-2.94-12.77,1-3.64,4.01-6.36,7.73-7,4.54-.91,9.16,1.18,11.46,5.2,2.61,4.97,2.58,10.91-.08,15.85-3.78,8.09-16.19,8.59-21.42,1.5-4.45-5.98-5.32-13.9-2.3-20.71,1.52-4.15,5-7.27,9.29-8.33,8.48-2.46,17.49,1.63,21.22,9.64,2.03,4.43,2.83,9.32,2.33,14.17-.27,4.67-1.56,9.22-3.79,13.33-2.23,4.15-5.17,7.88-8.7,11-1.2,.78-1.59,2.36-.9,3.61,1.52,3.02,2.98,6.07,4.55,9.06,.32,1.02,1.4,1.59,2.42,1.27,.23-.07,.45-.19,.63-.34,2.16-1.3,4.38-2.51,6.59-3.73,1.19-.92,2.9-.71,3.82,.48,.03,.03,.05,.07,.08,.11,1.14,1.68,3.42,2.11,5.09,.98h.01c1.61-.98,2.13-3.08,1.16-4.7h0c-.96-2.18-.27-4.73,1.66-6.12,2.66-2.46,3.92-6.08,3.34-9.66-.27-2.07-1.13-3.99-3.36-4.38-1.25-.04-2.48,.33-3.51,1.05-.27,.16,.24,1.64,.5,3.16,.93-1.23,1.27-2,1.85-2.37,.49-.3,1.77-.32,1.86-.1,.78,1.43,.33,3.22-1.04,4.1-1.19,.66-2.61,.79-3.91,.36-1.81-.89-2.25-4.4-1.24-6.51,1.01-2.05,3.34-3.09,5.55-2.47,2.52,.59,4.36-1.14,4.05-3.92-1.57-.2-3.16-.44-4.76-.58-1.68-.06-3.09-1.26-3.44-2.9-1.56-5.89,1.96-11.93,7.85-13.49,.78-.2,1.57-.32,2.37-.36,5.34-.59,10.14,3.27,10.73,8.61,.06,.59,.08,1.18,.03,1.76-.07,4.46,.6,6.22-6.12,6.44-1.07,0-2.11,.33-2.96,.97-2.43,3.36-2.85,7.77-1.11,11.53,.82,1.21,2.11,1.68,3.19,.77,3.16-2.48,6.12-5.2,8.86-8.13,4.7-5.71,7.74-12.59,8.8-19.91,.87-4.69,1.36-9.44,1.45-14.2-.14-4.15-.57-8.27-1.3-12.36-1.02-9.44-6.77-17.72-15.27-21.97-5.39-2.78-11.49-3.9-17.52-3.22-8.96,.39-16.29,7.28-17.25,16.2-.99,10.66,5.94,20.46,16.33,23.06,5.21,1.44,10.78-.4,14.09-4.68,4.11-5.6,3.67-13.32-1.04-18.41-3.27-4.33-9.42-5.22-13.78-2-3.51,3.06-4.21,8.25-1.63,12.13,1.3,1.97,2.9,3.76,5.65,3.28,2.34-.36,4.27-2.03,4.97-4.3,.54-1.56-.05-2.6-2.03-3.2-.07,1.03-.19,1.85-.18,2.65,.03,1.73-.64,2.79-2.47,2.94-2.3,.18-4.8-.97-4.91-2.52-.29-3.98,.46-7.24,4.59-8.86,3.6-1.42,7.3-.55,8.42,2.29,1.63,3.8,1.42,8.14-.56,11.76-3.36,6.21-13.11,5.57-17.35,.57-4.88-6.47-4.29-15.53,1.38-21.31,6.11-6.01,15.93-5.92,21.94,.19,.74,.76,1.41,1.58,1.98,2.47,3.93,5.92,5.07,13.27,3.14,20.11-.57,3.52-2.33,6.73-4.99,9.1-5.98,5.06-14.11,6.74-21.61,4.48-12.03-3.44-19.71-15.19-18.03-27.59,.4-2.09,.42-4.25,.62-6.37m-96.49,166.2c1.98-.19,2.2-1.86,2.16-3.22,.25-1.81-.7-3.58-2.35-4.36-3.58-.93-7.29,.91-8.73,4.32-1.38,4.43,1.09,9.14,5.52,10.53,.76,.24,1.55,.37,2.35,.38,5.38,.46,10.13-3.51,10.63-8.89,1.02-5.41-1.78-10.83-6.79-13.13-5.59-2.55-12.76,1.01-16.1,5.7-3.86,5.07-5.38,11.55-4.16,17.81,1.67,8.73,7.2,15.38,16.68,14.81,6.74-.84,13.4-2.22,19.92-4.13,.32-.08,.69-1.25,.58-1.82-.3-.87-.67-1.71-1.12-2.5-2.95-6.47-2.76-13.93,.51-20.24,2.9-5.75,9.75-8.29,15.69-5.82,6.03,2.52,9.13,9.24,7.11,15.46-1.52,5.51-7.17,8.79-12.71,7.39-4.86-1.93-7.24-7.44-5.3-12.31,.1-.25,.21-.5,.33-.74,1.08-2.45,3.42-4.1,6.09-4.29,2.26-.38,4.5,.79,5.47,2.87,1.59,2.21,1.52,5.2-.18,7.32-1.31,1.2-3.04,1.81-4.81,1.7-2.14-.26-2.41-2.41-2.38-4.41,.04-2.29,1.63-2.46,3.26-2.7,.17-.03,.32-.24,1.13-.89-1.63-.37-2.81-1.02-3.76-.77-1.92,1-2.95,3.15-2.53,5.27,.57,3.32,2.13,5.17,4.49,5.33,3.71,0,7.04-2.24,8.46-5.66,.61-3.24-.83-6.52-3.63-8.27-5.87-3.94-12.56-2-14.34,4.23-1.48,5.18-.6,10.75,2.41,15.23,1.13,2.61,3.57,4.41,6.4,4.72,5.24,.07,10.35,1.69,14.67,4.67,4.92,2.74,9.23,6.45,12.68,10.9,3.08,4.46,6.02,9.02,8.9,13.63,1.48,2.37,2.12,2.67,4.76,1.83,2.86-1.04,5.03-3.42,5.8-6.37,.46-1.22,.97-2.42,1.66-4.09,.72,1.29,1.18,2,1.51,2.75,1.11,2.91,4.04,4.72,7.14,4.39,3.42,.18,6.49-2.07,7.35-5.37,.75-3.36-.88-6.79-3.95-8.34-2.81-1.72-6.42-1.33-8.8,.94-.86,.82-1.71,1.66-3.05,2.97,0-3.52,.23-6.32-.07-9.06-.26-2.57-.83-5.1-1.72-7.53-2.22-4.69-6.08-8.39-10.85-10.41-1.85-1.02-3.08-2.06-1.47-4.28,1.21-1.67,.34-2.97-1.15-3.82-1.01-.83-2.5-.68-3.33,.33-.24,.3-.41,.65-.49,1.03-.29,.65-.62,1.28-.98,1.89-.86-.38-1.7-.83-2.5-1.33-5.21-3.77-10.47-7.47-15.52-11.45-1.54-1.27-2.72-2.92-3.4-4.8-.32-.9,1-2.35,1.47-3.6,.59-.99,.26-2.27-.73-2.86-.12-.07-.25-.13-.38-.18-1.52-.76-2.63-.78-3.39,.81-.35,.95-.63,1.94-.82,2.93-7.6-3.46-15.35-6.29-24.35-4.88,.93,1.48,1.56,2.51,2.22,3.52,2.4,3.41,3.68,7.48,3.67,11.65,.03,6.03-2.71,11.74-7.44,15.49-6.37,5.04-15.16,4.48-18.68-3.41-2.64-5.23-2.04-11.51,1.55-16.13,2.62-3.83,7.85-4.8,11.68-2.18,.43,.3,.84,.63,1.2,1,2.8,2.84,3.83,6.97,2.7,10.79-1.1,4.17-5.37,6.65-9.54,5.55l-.08-.02c-4.23-1.1-4.95-6.34-3.73-9.3,.79-1.9,2.52-2.08,4.31-1.95,1.26-.07,2.33,.89,2.4,2.15,0,.16,0,.32-.02,.48,.07,.92,.22,1.83,.45,2.72M241.4,84.46c-.72,.11-1.45,.18-2.18,.21-2.52,.16-5.04,.06-7.54-.3-3.71-1.1-7.02-3.29-9.48-6.28-.79-.73-1.63-1.4-2.51-2l-5.1,14.12c3.48,.3,6.93,.6,10.37,.9,5.55-.07,10.78,2.61,13.98,7.14,1.9,3.04,3.51,6.25,4.8,9.6,1.23,2.87,2.01,5.91,2.3,9.02,.31,6.98-2.05,13.81-6.6,19.11-4.15,6.09-11.13,9.64-18.5,9.41-6.58-.21-12.67-3.56-16.35-9.02-3.88-5.5-5.02-12.49-3.09-18.94,.8-4.42,3.32-8.34,7.01-10.91,7.05-5.06,16.86-3.45,21.92,3.6,.13,.18,.26,.37,.38,.56,2.19,3.84,2.83,8.37,1.79,12.67-.95,6.44-6.94,10.89-13.38,9.94-.49-.07-.98-.18-1.46-.31-1.57-.35-2.99-1.17-4.09-2.33-3.77-4.14-4.19-10.34-1.02-14.95,1.63-2.48,4.62-3.68,7.51-3.02,2.56,.13,4.67,2.05,5.04,4.59,.35,2.2,.33,4.43-.03,6.62-.31,2.13-2.28,3.61-4.41,3.3-.21-.03-.42-.08-.63-.14-1.63-.35-2.77-1.45-2.35-3.09,.17-.67,1.64-1.05,2.56-1.47,.43-.11,.88-.15,1.32-.11,.29-2.66-1.35-4.4-3.29-3.64-2,1.12-2.97,3.47-2.33,5.67,2.14,5.29,6.72,5.06,10.31,1.67,2.45-3.09,2.87-7.32,1.08-10.83-1.6-3.28-5.02-5.25-8.66-4.99-6.93,.39-12.22,6.33-11.83,13.25v.02c.34,6.22,4.59,11.54,10.58,13.24,13.46,3.65,22.19-6.82,21.58-18.79-.39-6.97-4.09-13.33-9.96-17.1-3.11-2.44-6.97-3.73-10.92-3.62-7.19,.99-13.85,4.36-18.9,9.57-5.67,5.39-9.27,12.59-10.2,20.35-.3,1.9-.91,2.73-2.82,1.97-1.18-.63-2.65-.18-3.28,1-.03,.05-.05,.1-.07,.15-.28,.81-.13,1.7,.4,2.37,1.02,.54,2.17,.81,3.33,.8,.67,.02,1.35-.55,2.08-.88,.3,.87,.56,1.75,.76,2.64,1.39,10,7.85,18.57,17.07,22.67,2.34,1.13,4.71,2.22,7.07,3.32,1.55,.73,2.34,1.61,.71,3.08-.29,.25-.49,.59-.57,.97-.08,.87-.39,2.28,0,2.54,1.29,.89,2.75,1.48,4.29,1.74,.53,.07,1.4-1.29,1.89-2.15,.37-.87,.63-1.78,.8-2.71l8,3.71c.29-.73,.45-1.5,.47-2.28-.96-6.51,.45-13.15,3.98-18.7,3.84-5.8,8.35-11.12,13.44-15.85,4.37-4.29,8.52-8.8,12.43-13.5,5.43-6.3,7.93-14.61,6.88-22.87-.96-7.38-7.72-12.59-15.1-11.63-.05,0-.1,.01-.15,.02-3.44,.15-6.11,3.07-5.96,6.51,.03,.59,.14,1.17,.33,1.73,.32-.94,.51-1.74,.84-2.49,.7-2.53,2.99-4.3,5.61-4.33,6.61,.04,9.93,4.72,8.4,11.19-.53,3.8-3.48,6.81-7.27,7.41-6.2,.43-11.57-4.25-12-10.44,0-.13-.02-.26-.02-.39,.03-2.66,.48-5.32,.78-8.33m-57.76,234.73c.02,.18,.04,.35,.05,.53,.4,.21,.81,.4,1.24,.55,.45,.09,.91,.15,1.37,.19,4.53,.41,8.79,2.33,12.11,5.44,4.79,5.16,6.72,12.36,5.15,19.22-1.24,7.35-7.84,16.65-15.91,17.71-5.45,.72-10.92-1.26-14.64-5.3-3.76-4.81-5.05-11.1-3.48-17,.5-3.38,2.2-6.47,4.79-8.7,3.6-2.78,8.48-3.21,12.51-1.09,1.96,.87,3.58,2.36,4.62,4.23,2.22,4.34,2.03,9.52-.5,13.69-3,4.8-6.74,6.42-11.92,3.15-3.83-3-4.72-8.43-2.04-12.49,1.43-2.13,4.07-3.09,6.53-2.38,1.98,1.05,3.06,3.24,2.69,5.45-.03,.39,.13,.85-.03,1.16-.46,.97-1.05,1.87-1.76,2.68-.57,.18-1.19,.1-1.69-.21-.15-.98-.21-1.97-.19-2.95-.04-.71-.13-1.41-.19-2.12-.99,.36-2.48,.43-2.86,1.13-1.08,1.96,.28,3.79,1.33,5.28,.83,.97,2.03,1.53,3.31,1.56,2.93-.65,5-3.28,4.94-6.28-.51-4-3.63-7.17-7.62-7.73-4.02-.29-6.23,1.91-7.49,6.58-1.42,5.25,1.89,12.31,6.98,13.56,7.34,1.81,14.19-2.33,15.26-7.84,.54-2.6,.64-5.26,.3-7.89-.81-5.35-2.86-10.2-8.67-11.86-9.06-2.07-18.27,2.78-21.7,11.42-1.78,5.11-2.43,10.56-1.9,15.95-.11,6.38,3.17,12.35,8.61,15.67,10.06,6.66,22.84,7.72,33.86,2.79,3.4-1.36,6.54-3.31,9.27-5.75,3.95-4.07,6.07-9.57,5.87-15.24,.1-3.91,.03-3.89,3.99-4.73,1.99-.19,3.58-1.75,3.8-3.74-.16-1.63-.91-3.15-2.12-4.26-1.17-1.43-3.24-1.75-4.78-.72-1.73,1.17-2.77,1-3.38-1.36-.75-3.8-2.72-7.26-5.61-9.84-3.05-2.17-6.21-4.17-9.47-5.99-.94-.59-1.79-1.33-2.39-1.79,.59-1.23,1.13-2.5,1.59-3.78,.03-.09-1.45-.97-1.65-.79-1.28,1.19-2.5,2.45-3.64,3.77-1.8-.15-4.33-.53-6.87-.52-2.53,0-5.12,.41-7.68,.64m132.54-90.95l-.94,.1c.13,.89-.06,2.19,.44,2.58,1.01,.86,2.29,1.35,3.62,1.36,1.7-.08,3.06-1.41,3.19-3.11,.22-3.35-2.32-6.24-5.67-6.46-3.35-.22-6.24,2.32-6.46,5.67,0,.06,0,.13,0,.19,.24,3.35,.91,6.65,2,9.82,2.5,5.68,3.57,11.88,3.11,18.06-.4,2.7,.57,3.31,3.32,2.38,6.79-2.28,13.56-4.61,20.25-7.16,2.84-.89,5.49-2.32,7.79-4.22,5.82-6.11,9.26-14.09,9.72-22.51,.74-7.63-.89-15.3-4.68-21.97-.81-1.52-1.8-3.33,1-4.6,2.15-.97,2.02-2.41,.32-3.85-1.37-1.15-2.36-.39-3.11,.67-1.16,1.61-2.45,1.47-3.94,.64-1.11-.52-2.19-1.11-3.22-1.77-5.34-4.26-12.86-4.48-18.44-.54-4.27,2.06-6.9,6.47-6.69,11.2,.15,5.31,3.05,10.16,7.67,12.8,4.57,3.33,10.97,2.32,14.3-2.25,.25-.34,.48-.7,.68-1.07,2.68-4.13,1.74-9.63-2.16-12.63,.32,1.41,.56,2.65,.86,3.89,1.47,3.87-.48,8.19-4.35,9.66-1.15,.43-2.38,.58-3.6,.43-5.13-.01-9.28-4.18-9.27-9.31,0-1.06,.18-2.1,.54-3.1,.95-4.34,4.57-7.58,8.98-8.05,4.06-.76,8.17,1.04,10.37,4.52,2.86,4.21,3.56,9.53,1.89,14.34-1.31,5.82-6.79,9.72-12.72,9.05-2.19-.2-4.38-.32-6.86-.49,.35,1.69,.54,3.4,.55,5.12-.28,2.75-.14,6.05-3.31,7.27-2.29,.97-4.94,.46-6.71-1.29-1.73-1.56-2.16-4.12-1.02-6.15,.58-1.08,1.77-2.52,2.71-2.55,1.44,.15,2.78,.83,3.76,1.9,.47,.47,.14,2.01-.21,2.92-.21,.55-1.34,1.27-1.74,1.1-.71-.28-1.21-1.15-1.75-1.81-.13-.26-.22-.54-.25-.83m-159.24-85.79c-.81,1.12-1.5,1.93-2.04,2.84-2.25,4.01-6.21,6.79-10.75,7.53-2.43,.45-4.91,.59-7.37,.42-4.51-.27-8.66-2.51-11.37-6.12-4.8-6.22-3.35-17.86,1.18-23.91,4.9-5.31,13.02-6.04,18.79-1.7,2.44,2.44,3.99,5.63,4.42,9.05,1.2,9.06-2.63,13.81-10.74,13.31-7.04-.43-11.73-5.25-8.99-12.6,1.44-3.81,5.69-5.73,9.49-4.29,.06,.02,.11,.04,.17,.07,3.1,1.78,3.01,4.51,3,7.41,.18,1.86-1.04,3.56-2.86,3.99-1.63,.18-3.27-.19-4.66-1.06-1.35-.81-1.45-4.54,.58-5.09,.64-.17,1.14-.82,1.69-1.25-.89-.07-2.15-.54-2.58-.13-.97,.88-1.65,2.04-1.93,3.33-.22,2.06,.83,4.06,2.65,5.04,2.4,1.57,5.57,1.27,7.65-.71,2.22-1.67,3.24-4.48,2.62-7.18-.67-2.57-2.28-4.8-4.51-6.25-3.75-2.5-8.67-3.33-11.63,2.04-2.27,4.06-2.52,8.94-.68,13.2,2.05,5.69,8.32,8.64,14.01,6.59,.78-.28,1.53-.65,2.22-1.1,8.29-5.36,10.66-16.42,5.3-24.71-.88-1.36-1.94-2.59-3.15-3.66-5.46-4.08-12.62-5.11-19-2.72-5.44,2.63-9.69,7.19-11.93,12.8-4.65,10.07-2.57,21.96,5.22,29.85,4.69,4.8,10.61,8.22,17.12,9.87,6.87,2.61,14.59,1.48,20.43-2.98,1.31-.95,2.79-1.64,4.35-2.03,6.96-1.98,14.17-2.95,21.4-2.9,1.56-.1,3.1-.35,4.61-.74-2.62-5.71-5.33-11.01-7.5-16.52-3.18-8.08-9.56-8.93-16.51-6.5-1.63,.81-2.89,2.2-3.54,3.9-.74,2.09-1.12,4.3-1.1,6.52-.27,2.13,.64,4.24,2.37,5.51-.15-.75-.22-1.17-.32-1.59-.96-3.17-.51-6.6,1.25-9.41,2.84-4.05,10.88-2.58,13.55,2.25,2.93,5.27,1.04,11.92-4.23,14.86-1.16,.64-2.43,1.07-3.74,1.26-4.91,1.03-9.78-1.87-11.23-6.67-.7-3.11-1.11-6.29-1.73-9.84m191.06,178.96c-2.57-5.03-2.97-10.9-1.11-16.23,2.11-8.28,9.25-13.6,17.53-11.37,9.54,2.58,15.63,12.61,10,22.28-4.89,8.37-14.49,8.47-18.88,1.48-3.4-4.6-2.63-11.06,1.77-14.72,3.1-2.5,7.64-2.02,10.15,1.07,2.44,3.01,2.06,7.41-.86,9.97-1.38,1.68-3.85,1.92-5.53,.54-.55-.45-.97-1.05-1.21-1.73-.78-1.58-.48-4.09,.6-4.37,1.91-.48,2.58,.89,3.13,2.33,.03,.07,0,.2,.04,.23,.45,.32,.97,.89,1.35,.81,.51-.23,.88-.68,1-1.23,.21-2.38-1.38-4.54-3.71-5.05-1.64-.32-3.22,1.08-3.86,3.29-.66,1.38-1.13,2.85-1.38,4.36,.96,3.45,4.42,5.58,7.93,4.86,4.18-1.47,7.01-5.36,7.12-9.79,.25-3.64-1.63-7.09-4.83-8.84-3.66-2.27-8.3-2.22-11.92,.12-6.6,4.49-8.31,13.47-3.82,20.07,.4,.58,.84,1.14,1.32,1.66,6.45,6.54,16.98,6.61,23.52,.16,.48-.48,.94-.98,1.36-1.52,4.37-6.22,5.02-14.32,1.71-21.16-4.49-8.4-13.8-10.56-22.04-8.37-8.56,2.5-15.94,7.98-20.81,15.46-8.08,11.27-12.34,24.83-20.93,35.87-.21,.95,.08,1.95,.77,2.63,7.51,3.83,15.25,5.91,23.66,2.9,8.62-3.09,12.08-11.7,8.18-18.66-1.21-2.72-3.85-4.53-6.83-4.68-2.6,.12-4.93,1.66-6.07,4.01-1.86,2.77-1.39,6.49,1.1,8.71,.66,.32,1.36,.54,2.09,.64,.07-.48-.09-.96-.42-1.32-2.03-2.88-1.33-6.86,1.55-8.89,.43-.3,.89-.54,1.37-.73,1.13-.06,2.22,.39,2.99,1.22,2.33,2.67,3.01,6.4,1.77,9.72-.34,1.39-1.07,2.65-2.11,3.63-3.85,2.26-8.78,1.29-11.49-2.25-1.41-2.22-2.04-4.84-1.79-7.45-.11-5.98,4.65-10.91,10.62-11.01,.99-.02,1.97,.1,2.92,.35,1.29,.4,2.62,.64,4.03,1m51.49-39.93c-.14,.88-.25,1.45-.32,2.02-.5,5.47-.5,5.4-5.99,5.59-1.09,.05-2.11,.55-2.81,1.38-.96,1.65-1.69,3.41-2.19,5.25-.02,.7,.3,1.37,.86,1.78,9.36,6.47,21.03,8.66,32.1,6.03,4.65-.73,8.73-3.51,11.1-7.57,5.12-8.92,6.02-19.65,2.47-29.31-3.65-9.22-9.87-15.34-20.06-15.04-8.59,.09-15.49,7.12-15.4,15.71,.01,1.2,.16,2.39,.45,3.56,1.86,6.13,7.39,10.43,13.8,10.71,5.65-.33,10.27-4.64,10.98-10.25,.65-3.61-.92-7.26-3.97-9.28-2.7-1.65-6.12-1.53-8.7,.3-3.02,1.53-4.41,5.08-3.22,8.24,1.1,2.04,3.01,3.53,5.26,4.1,2.25,.85,3.43-.35,4.45-1.8,1.08-1.42,.91-3.43-.39-4.66-.32-.36-1.06-.36-1.61-.52,1.93,2.23,1.99,3.11,.14,4.78-1.02,1.26-2.83,1.54-4.19,.64-.96-.87-1.56-2.07-1.69-3.36-.15-2.89,1.81-5.47,4.64-6.1,1.77-.29,3.59,.22,4.95,1.39,2.9,3.17,2.68,8.08-.49,10.98-.76,.7-1.65,1.23-2.62,1.58-4.84,2.05-10.42-.2-12.48-5.04-.65-1.54-.89-3.23-.69-4.89,.11-4.96,3.38-9.3,8.12-10.78,5.02-1.66,10.53,.03,13.76,4.22,1.88,3.13,2.57,6.84,1.93,10.44-.02,5.29-3.07,10.11-7.84,12.4-5.64,2.97-12.48,2.52-17.69-1.16-.85-.52-1.74-.98-2.66-1.38m-263.86,61.52c-2.35-1-4.26,.22-4.07,2.46,.26,2.96,3.63,6.24,6.12,5.86,3.91-.52,6.78-3.93,6.63-7.87-.57-2.5-2.07-4.7-4.19-6.15-3.68-3.06-9.12-2.6-12.24,1.02-1.81,2.37-2.56,5.39-2.06,8.34,.85,5.16,4.49,9.43,9.45,11.08,4.95,1.36,10.22-.45,13.3-4.54,5.73-6.44,6.06-16.04,.8-22.87-4.18-5.07-10.62-7.69-17.15-6.99-8.09,1.85-12.76,7.57-16.12,14.54-2.41,4.86-3.07,10.41-1.88,15.7,.65,3.04,1.62,6,2.9,8.84,2.43,4.48,6.27,8.04,10.92,10.13,3.9,2.24,8.53,2.87,12.88,1.74,3.84-.97,7.65-2.16,11.54-2.87,3.54-.64,7.16-.79,10.55-1.13l-6.06-18.68c-.59,1.07-1.06,1.84-1.44,2.65-4.7,9.2-15.96,12.84-25.15,8.15-9.2-4.7-12.84-15.96-8.15-25.15,.38-.75,.82-1.48,1.3-2.17,3.94-4.4,9.88-6.43,15.68-5.37,6.49,2.06,10.53,8.52,9.55,15.26-1.39,8.67-7.81,10.63-14.65,9.44-3.84-.67-5.35-3.94-5.35-9.51,0-4.46,2.46-6.72,7.17-6.62,3.51,.43,6.07,3.51,5.87,7.04-.03,2.06-1.34,3.87-3.28,4.55-1.85,.62-3.88-.17-4.83-1.87-1.04-2.04,.28-3.45,1.81-4.64,.05-.04,.06-.14,.13-.36M185.36,68.56l-.83,.04c-1.37,2.02-2.84,3.97-4.1,6.05-2.94,4.86-4.9,10.01-2.28,15.58,2.15,4.56,4.76,8.91,7.19,13.33,.84,1.52,1.79,2.97,2.96,4.89,2.23-4.7,5.64-8.74,9.89-11.73,4.77-3.76,9.19-7.95,13.2-12.51,4.44-5.22,4.88-12.74,1.09-18.45-2.25-4.16-6.69-6.66-11.41-6.44-4.77,.25-8.89,3.39-10.41,7.91-1.97,4.81,.33,10.3,5.14,12.27,1.45,.59,3.03,.82,4.59,.65,5.82-.21,8.99-5.89,5.83-11.98-1.05-2.19-3.21-3.65-5.64-3.8-2.74,.69-4.85,2.89-5.44,5.66-.25,1.61,1.48,3.86,3.59,4.83,1.72,.79,2.56-.46,3.49-1.43,.22-.34,.25-.77,.07-1.13-.33-.23-.76-.27-1.13-.12-.83,.48-1.63,1.01-2.4,1.57-.37-.34-.6-.55-.82-.77-2.28-2.17-2.23-2.88-.64-5.3,1.1-1.87,3.5-2.49,5.37-1.39,.08,.05,.16,.1,.24,.16,2.42,1.7,3.7,4.61,3.32,7.55-.1,1.35-.71,2.61-1.72,3.52-2.22,1.62-5.12,1.98-7.67,.97-3.49-1.17-5.62-4.71-5-8.34-.1-5.09,3.93-9.3,9.02-9.4,1.29-.03,2.57,.22,3.76,.72,6.68,2.25,9.06,11.84,5.75,17.71-2.96,5.16-9.02,7.68-14.77,6.14-5.35-1.21-9.2-5.9-9.34-11.38-.2-1.81-.59-3.59-.89-5.39m19.91-28.98l-1,.05c0,.79-.32,1.82,.06,2.32,.84,1.09,2.02,2.64,3.07,2.65,1.58-.12,3.03-.88,4.03-2.11,2.13-3.35,1.2-7.79-2.1-10-3.54-1.71-7.77-.94-10.47,1.91-2.7,3.98-2.51,9.25,.47,13.02,3.42,4.43,9.69,5.44,14.33,2.3,7.17-4.74,9.16-14.38,4.47-21.58-3.68-6.03-12.18-7.97-18.81-6.14-7.16,1.87-12.04,8.48-11.72,15.86,.39,6.56,.63,13.14,.97,19.7,.03,.55,.29,1.4,.67,1.55s1.14-.23,1.66-.5c2.29-1.18,4.55-2.4,6.82-3.62,.43-.24,.83-.54,1.29-.84-.93-1.17-1.81-2.14-2.54-3.22-3.1-3.71-4.26-8.67-3.15-13.37,1.28-6.59,7.66-10.9,14.25-9.62,.29,.06,.57,.12,.86,.2,6.66,1.31,8.2,7.84,6.93,13.94-.45,2.56-2.14,4.73-4.51,5.8-2.81,1.33-6.15,.68-8.25-1.61-2.18-2.61-2.39-6.35-.51-9.18,.83-1.79,2.62-2.93,4.59-2.95,2.14,.11,2.8,2.2,3.3,3.93,.82,2.8-.93,4.54-3.78,4.08l-.91-2.57m10.85,157.44l-.84,.16c.32,.92,.35,2.22,.99,2.67,.98,.79,2.24,1.15,3.49,1.01,2.36-.73,3.18-4.04,2.09-7.01-.79-2.39-3.22-3.83-5.69-3.38-3.9,.63-6.56,4.3-5.93,8.2,.07,.45,.19,.9,.35,1.33,1.06,4.68,5.72,7.62,10.4,6.56,1.12-.25,2.17-.72,3.11-1.39,3.69-2.29,5.45-6.72,4.35-10.92-.79-5.77-7.04-12.45-13.09-11.05-5.57,.88-10.32,4.49-12.66,9.62-3.09,7.18-1.63,15.51,3.72,21.21,3.66,3.84,6.24,8.58,7.47,13.75,.32,1.98,1.22,2.46,3.3,1.71,3.56-1.29,7.28-2.11,10.95-3.14,1.33-.3,2.64-.69,3.92-1.17,.56-.36,.91-.98,.92-1.65-.03-.37-.97-.85-1.54-.94-2.04-.32-4.09-.51-5.99-.72-1.9-3.98,.17-7.62,.88-11.54-.67,.29-1.14,.52-1.61,.7-4.35,2.22-9.61,1.61-13.35-1.53-4.39-4.05-6.15-10.21-4.56-15.97,.39-2.07,1.38-3.98,2.85-5.5,1.51-1.01,3.25-1.63,5.05-1.81,4.14-1.34,8.58,.94,9.92,5.08,.11,.35,.2,.71,.26,1.07,.38,1.93,.43,3.9,.14,5.84-.36,3.77-3.71,6.54-7.48,6.17-.19-.02-.39-.05-.58-.08-3.47-.53-5.34-3.94-4.48-8.17,.55-2.27,2.72-3.75,5.04-3.46,2.13,.22,3.14,1.49,2.76,4.19-.23,1.14-.96,2.11-1.98,2.65-1.54,.61-1.55-.93-1.75-1.98-.04-.19-.29-.34-.45-.51m56.74,177.89c-.29-6.72-5.83-12.03-12.56-12.02-6.04-.22-11.11,4.49-11.34,10.53-.21,6.72,4.92,12.4,11.62,12.88,6.49,.28,11.98-4.75,12.26-11.25,0-.05,0-.1,0-.15m-120.72-160.24c-.29,3.49,.57,6.93-1.81,9.95-2.38,3.02-5.62,3.27-9.55,3.13l13.35,14.06c.91-4.03,2.13-7.98,3.64-11.83,1.97-3.51,4.19-6.87,6.66-10.04l-12.3-5.28m176.8,220.78c1.61-2.55,2.85-4.43,3.97-6.38,.62-.91,1.03-1.94,1.2-3.03,.08-1.3,.46-1.98,1.76-2.19,2.05-.32,2.35-1.75,1.96-3.46-.6-2.64-1.61-3.08-4.4-2.3-1.09,.32-2.65,.81-3.34,.32-1.56-1.41-3.9-1.49-5.56-.21-.8,.36-1.65,.56-2.52,.6-.75,1.63-1.38,3.31-1.89,5.03-.42,1.86-1.29,4.49-.44,5.6,1.75,2.25,2.05,3.93,.08,6.08,.96-.38,1.89-.82,2.8-1.32,.62-.32,1.61-.61,1.75-1.09,.67-2.7,2.55-2.3,4.63-2.07v4.42Zm-155.28-5.04c.12-4.56-3.48-8.36-8.04-8.49-.1,0-.19,0-.29,0-4.31-.06-7.89,3.31-8.08,7.62-.15,4.22,3.14,7.76,7.36,7.92,.38,.01,.75,0,1.13-.04,4.41,.05,8.59-3.49,7.91-7.01m236.75-2.54c.19,4.71,4.17,8.37,8.88,8.17,.11,0,.22-.01,.32-.02,3.88-.31,6.94-3.42,7.2-7.3-.03-4.7-3.82-8.51-8.52-8.56-4.12-.23-7.64,2.91-7.88,7.03-.01,.23-.02,.46,0,.68m-158.66-20.44c-4.33,.1-7.83,3.58-7.95,7.92,.61,4.21,3.95,7.5,8.17,8.05,4.15-.48,7.49-3.6,8.26-7.71-.17-4.57-3.9-8.2-8.48-8.25m39,.53c4.24,.37,7.98-2.76,8.35-7,0-.1,.02-.19,.02-.29-.08-4.51-3.72-8.14-8.23-8.21-4.28-.16-7.87,3.18-8.03,7.46v.09c0,3.68,3.54,8.52,7.9,7.95m-40.54-48.69c3.89,0,6.27-2,6.23-5.21-.1-3.73-2.83-6.86-6.5-7.48-3.73,.23-6.73,3.14-7.09,6.86,.02,3.48,2.99,5.83,7.35,5.83m49.35,60.35c-.1-3.52-2.87-6.38-6.39-6.59-3.11,.43-5.62,2.74-6.31,5.8,.66,3.49,3.55,6.12,7.09,6.44,3.02-.21,5.41-2.62,5.6-5.64m-74.07,15.46c3.27,.14,6.03-2.39,6.18-5.66,0-.05,0-.09,0-.14-.11-3.38-2.92-6.03-6.3-5.95-3.25,.07-5.95,2.5-6.37,5.73,.41,3.32,3.14,5.87,6.48,6.04m212.37-190.7c-.68,.48-.94,.64-1.17,.83-2.82,2.45-7.09,2.16-9.54-.65-.69-.79-1.18-1.72-1.45-2.74-.69-2.08-.16-4.37,1.36-5.95,2.15-1.45,4.93-1.59,7.22-.36,.55,.51,.87,1.21,.91,1.95,.05,1.55-.14,3.11-.26,5.04,.6-.5,1.02-.71,1.23-1.06,1.37-3.45-.32-7.36-3.78-8.73-.39-.16-.8-.27-1.22-.35-3.27,.24-6.17,2.2-7.6,5.15-1.68,2.97-1.13,6.7,1.33,9.05,2.82,2.46,5.85,4.71,8.86,6.94,.58,.14,1.2-.02,1.64-.42,.88-2.72,1.59-5.5,2.48-8.7m-330.15,8.04c3.37-2.3,6.53-4.42,9.64-6.62,.64-.43,1.12-1.07,1.36-1.8,1.28-3.18,.13-6.83-2.75-8.7-2.14-1.72-5.15-1.87-7.45-.35-2.38,1.06-3.44,3.85-2.38,6.23,.56,1.26,1.65,2.21,2.98,2.6,1.04,.3,2.53-.69,3.71-1.31,.27-.14,.07-1.18,.08-1.8-.54-.04-1.09,.02-1.61,.17-.85,.56-1.65,1.18-2.4,1.87-.44-1.44-.6-2.96-.45-4.46,.29-.8,1.93-1.32,3.04-1.56,1.49-.35,3.01,.49,3.52,1.93,1.68,2.38,1.11,5.67-1.27,7.35-1.13,.79-2.52,1.12-3.88,.9-3.99,0-4.48,.8-2.74,4.48,.19,.41,.45,.78,.62,1.08M354.82,116.06c.54-.17,1.07-.39,1.58-.64,2.05-1.35,4.02-2.8,6.1-4.08,2.08-1.34,3.59-3.41,4.23-5.8,.71-2.42,.03-5.03-1.76-6.8-1.78-1.86-4.68-2.11-6.74-.57-1.62,1.13-2.37,3.14-1.88,5.05,.79,1.5,1.67,3.13,4.07,2.74-.12-.73-.19-1.47-.21-2.21,.03-.75,.04-2,.4-2.15,.81-.32,2.53-.37,2.67-.04,.68,1.48,1.03,3.09,1.02,4.72-.08,1.43-.69,3.15-2.78,2.99-2.41-.18-4.81-.47-7.41-.73,.2,2.22,.43,4.73,.68,7.52m-76.18,245.55c2.88,.12,5.32-2.11,5.44-4.99v-.06c-.35-2.91-2.74-5.15-5.68-5.31-2.86,.04-5.15,2.39-5.11,5.25,.04,2.86,2.39,5.15,5.25,5.11,.03,0,.07,0,.1,0m-11-92.67c2.37,.46,4.67-1.09,5.13-3.46,.06-.33,.09-.66,.08-.99,.28-2.99-1.92-5.63-4.91-5.91-2.99-.28-5.63,1.92-5.91,4.91-.02,.25-.03,.5-.02,.76,.22,2.81,2.67,4.91,5.48,4.7,.05,0,.09,0,.14-.01m-35.35,101.56c2.88,.14,5.33-2.09,5.47-4.97v-.05c-.34-2.91-2.72-5.16-5.64-5.35-2.8,.03-5.08,2.27-5.15,5.07-.18,2.74,1.9,5.11,4.64,5.29,.24,.02,.48,.01,.72,0m58.47,14.98c3.48,0,5.03-1.27,5.04-4.19,.72-2.95-1.08-5.93-4.04-6.65-2.95-.72-5.93,1.08-6.65,4.04-.72,2.95,1.08,5.93,4.04,6.65,.53,.13,1.07,.18,1.61,.15m-29.08-75.88c-3.22,0-5.25,1.58-5.29,4.17-.09,3.05,2.29,5.6,5.33,5.73,2.88,.16,5.34-2.05,5.49-4.93v-.08c-.09-2.8-2.43-5-5.24-4.91-.1,0-.2,0-.3,.02m-117.13-87.14l-1.82-3.02c-1.39,1.52-1.32,2.63-.19,3.75,1.93,1.48,4.7,1.11,6.18-.82,.22-.29,.4-.6,.54-.93,.61-2.11-.19-4.38-2-5.64-1.67-1.98-4.28-2.91-6.83-2.44-2.7,1.15-4.67,3.56-5.26,6.44-.25,3.36,2.05,5.15,4.41,6.95-1.41-2.6-1.46-5.73-.14-8.37,.79-1.51,2.46-2.35,4.14-2.08,1.63,.04,3.19,.54,3.15,2.45-.03,1.48-.05,3.34-2.2,3.7m130.57-127.31c-1.05,5.8-2.1,11.58-3,16.54,2.37-1.02,5.43-2.52,8.62-3.64,1.71-.59,1.67-1.37,.95-2.53-2.17-3.5-4.41-6.97-6.57-10.37m-89.17,334.25c-2.63,.11-4.75,2.18-4.91,4.8,.24,2.67,2.34,4.79,5,5.07,2.65-.18,4.83-2.14,5.29-4.76-.15-2.87-2.51-5.12-5.38-5.12m166.44,1c2.63,.21,4.94-1.75,5.15-4.38v-.04c-.3-2.62-2.54-4.57-5.17-4.53-2.47-.12-4.58,1.78-4.71,4.26-.12,2.47,1.78,4.58,4.26,4.71,.16,0,.32,0,.48,0m-20.32-231.5c-1.41-.98-3.32-.8-4.51,.43-3.13,3.09-3.17,8.13-.09,11.26,.08,.08,.17,.16,.25,.24,1.56,2.33,4.72,2.95,7.05,1.39,.15-.1,.29-.2,.42-.32,2.13-2.07,2.39-5.4,.62-7.78-.88-1.09-2.2-1.72-3.6-1.72-1.11,.25-2.17,1.82-2.71,3.05-.29,.67,.57,1.83,.91,2.77l.82-.23c-.04-.66-.03-1.33,.02-1.99,.09-.64,.19-1.64,.59-1.82,.69-.21,1.44-.11,2.05,.28,1.5,1.07,1.92,3.11,.97,4.68-.78,1.6-2.52,2.48-4.26,2.17-1.68-.04-3.11-1.24-3.43-2.9-1.25-3.98,.94-8.23,4.91-9.52m-41.66,51.25c1.93,2.38,5.42,2.75,7.8,.82,.7-.57,1.26-1.3,1.61-2.13,.4-1.99,.45-4.03,.13-6.03,.09-1.52-1.08-2.83-2.6-2.92-.03,0-.05,0-.08,0-1.93-.19-4.03-.32-5.28,1.45-.99,1.6-.78,3.66,.5,5.03,.52-1,1.11-1.97,1.76-2.9,.42-.56,1.02-.97,1.7-1.16,1.66-.32,1.48,1.1,1.73,2.11,.97,3.94-.42,6.29-4.19,5.76-1.04-.08-2.07-.08-3.11-.02m-20.65,79.62c1.96-.04,3.62-1.47,3.96-3.4-.63-2.34-2.52-4.12-4.89-4.62-2.17,.38-3.91,2-4.43,4.14-.1,1.65,2.98,3.86,5.36,3.86m1.31,6.02c-2.31-.02-4.23,1.77-4.38,4.07,.24,2.14,1.97,3.8,4.12,3.94,1.72,.07,4.8-2.37,4.78-3.79-.49-2.2-2.28-3.88-4.51-4.23m-133.79,93.42c-.82,.11-1.61,.36-2.35,.72-.55,.4-1.23,1.41-1.07,1.87,.37,.86,1.03,1.57,1.86,2.01,.32,.18,1.58-.49,1.72-.97,.55-1.91,1.76-2.32,3.59-2.54,1.82-.08,3.23-1.61,3.15-3.43,0-.05,0-.11-.01-.16,.13-1.2-.74-2.27-1.93-2.4-.09,0-.18-.01-.27-.01-1.81-.22-3.63-.19-4.03,2.25-.15,.89-.43,1.76-.66,2.64m143.49-140.2c-1.85,0-2.88,1.3-2.86,3.61-.1,2,1.41,3.72,3.41,3.86,2.08-.05,3.72-1.78,3.67-3.85-.05-2.08-1.78-3.72-3.85-3.67-.12,0-.24,.01-.36,.03m82.12,146.08c2.15,0,3.59-1.09,3.54-2.71-.26-2.02-1.84-3.62-3.86-3.9-1.73,.22-3.07,1.61-3.22,3.35,.2,1.82,1.71,3.22,3.54,3.26M201.27,160.57c-.04-2-1.7-3.59-3.7-3.54h-.02c-1.79,0-2.9,1.29-2.9,3.35-.18,1.62,.99,3.07,2.6,3.25,.15,.02,.29,.02,.44,.02,1.83,.13,3.42-1.23,3.57-3.06m53.46,236.14c1.35,.3,2.68-.54,2.99-1.89,.04-.19,.06-.39,.06-.58-.23-2.01-1.69-3.66-3.66-4.14-1.84,.17-3.26,1.69-3.3,3.54,.37,1.85,2.03,3.15,3.91,3.06m143.09,29.11c-.04-1.57-2.12-3.93-3.4-3.86s-3.65,2.25-3.66,3.42c0,1.1,2.44,3.15,3.78,3.15,1.95,0,3.33-1.14,3.29-2.71m-179.25-4.7c-.11-1.84-1.58-3.3-3.42-3.41-1.61,.32-2.86,1.58-3.17,3.19,.22,1.81,1.67,3.22,3.48,3.41,1.63-.25,2.91-1.55,3.11-3.19m89.72-.14c-2.04,.05-3.28,1.23-3.19,3.04,.07,1.55,2.25,3.5,3.89,3,1.2-.42,2.15-1.34,2.61-2.53,.44-1.76-1.52-3.54-3.3-3.51m-50.45-213.33c1.75-.07,3.16-1.47,3.25-3.22-.2-1.61-1.55-2.82-3.17-2.83-1.83-.12-3.47,1.14-3.81,2.95,.31,1.81,1.89,3.13,3.73,3.1m116.09,215.23c-2.07,0-3.34,1.04-3.29,2.69,.35,1.8,1.96,3.08,3.79,2.99,1.67-.12,3-1.42,3.17-3.08,0-1.66-1.33-2.6-3.66-2.6m66.34,4.74c1.25-.09,3.01,.03,2.97-2.42,.17-1.63-1.02-3.08-2.65-3.25-.14-.01-.28-.02-.42-.01-1.73,.04-3.21,1.28-3.54,2.98-.06,1.66,1.19,2.69,3.65,2.7m-243.39-5.68c-1.72-.36-2.55,.67-2.66,2.38-.02,1.73,1.13,3.26,2.8,3.71,1.79-.21,3.23-1.55,3.58-3.32,.07-1.37-1.71-2.77-3.71-2.78m209.71,15.2c.02-.38,.04-.76,.05-1.13-1.17-.78-2.29-2.02-3.54-2.17-.73-.09-2.05,1.42-2.41,2.46-.42,1.19,1.54,2.85,2.9,2.49,1.06-.42,2.07-.97,2.99-1.65m-62.4,.59c-.48,.53-1.51,1.24-1.87,2.2-.42,1.15,1.79,3.45,2.98,3.02,1.11-.44,1.97-1.36,2.34-2.5,.28-1.69-1.07-2.51-3.46-2.73m-196.33-.86c0,2.55,1.37,4.11,3.04,3.74,1-.36,1.77-1.19,2.05-2.22,.22-1.31-.67-2.55-1.98-2.76-.22-.04-.44-.04-.66-.02-.95,.03-1.87,.94-2.46,1.26M328.08,148.81c-.55-1.82-1.66-3.12-3.6-2.9-.94,.28-1.67,1.01-1.93,1.95,.03,1.02,.52,1.97,1.34,2.58,1.91,1.19,3.05-.34,4.19-1.65m-19,140.09c-1.35,1.29-1.65,3.34-.71,4.96,1.56,1.68,3.91,2.35,6.12,1.75,1.7-.78,1.55-2.09,1.23-3.8-1.57,1.52-3.09,3.57-4.98,1.9-1.11-.97-1.15-3.17-1.66-4.81m-33.88,14.71c.22-1.27-.62-2.47-1.89-2.7-.17-.03-.34-.04-.5-.03-.99-.06-2.5,.22-2.38,2.1,.11,1.68,.62,2.94,2.46,2.9,1.25-.03,2.47-.52,2.32-2.25m84.68-92.54c1.13,1.24,2.23,2.79,4.17,1.91,.68-.31,1.51-1.68,1.32-2.2-.4-1.01-1.21-1.8-2.23-2.16-1.68-.37-2.83,.69-3.26,2.46M171.96,114.32c-1.93-1.63-4.82-1.39-6.45,.54-.09,.11-.18,.23-.26,.34-1.09,1.79-.76,4.11,.79,5.53,.39-4.36,1.68-5.76,5.94-6.42m186.99,128.45c.1-2.78-1.38-3.51-2.87-3.49-1.02,.26-1.83,1.04-2.14,2.05-.15,1.33,.8,2.53,2.12,2.68,.16,.02,.33,.02,.49,0,.93-.04,1.83-.92,2.4-1.24M247.46,97.17c1.01,2.12,3.42,2.58,6.38,.89,3.14-1.79,4.04-4.3,2.51-6.66-.81,1.74-1.2,4.31-2.61,5.15-2.02,.65-4.16,.87-6.27,.64m-79.77,57.14c3.57,1.32,4.96,1.04,6.4-.87,2.11-2.06,2.42-5.34,.73-7.75-.13,4.71-1.42,8.26-7.13,8.62m112.12,267.99c-1.26-1.02-2.14-2.21-2.69-2.07-.92,.23-1.63,1.31-2.42,2.03,.82,.78,1.75,1.43,2.76,1.93,.4,.14,1.23-.95,2.35-1.9m104.89,11.74c1.06-1.2,2.23-1.95,2.18-2.61-.06-.87-1.07-1.67-1.67-2.5-.89,.69-1.66,1.53-2.27,2.47-.19,.4,.89,1.38,1.77,2.63m-42.29-3.86c-1.45-.79-2.32-1.64-3.14-1.59-.64,.04-1.25,1.18-1.87,1.82,.64,.62,1.35,1.77,1.95,1.72,.87-.07,1.67-1,3.06-1.95m48.95-206.74c-1.53-1.43-3.83-1.66-5.62-.58-1.04,.68-1.31,2.55-1.93,3.88l.88,.81c.4-2.79,2.98-4.72,5.77-4.33,.31,.04,.61,.11,.9,.21m-120.24,176.16c-.95,1.03-2.02,1.93-1.91,2.12,.44,.85,1.16,1.52,2.04,1.9,.52,.14,1.34-.86,2.02-1.36l-2.15-2.66m-19.88-311.1c-1.23-.68-2.16,.62-2.94,1.66-.92,1.67-.35,3.77,1.29,4.75,1.57,.79,2.04-.14,2.38-.93l-3.05-.82,2.33-4.65m-45.49,291.43c-1-.82-1.65-1.64-2.47-1.88-.35-.1-1.61,1.14-1.5,1.5,.25,.88,.86,1.6,1.68,2,.46,.15,1.31-.9,2.28-1.61m186.7-176.78c1-4.04,2.11-4.63,5.29-2.75-.1-.68-.27-1.53-.76-1.81-1.42-.78-3.2-.33-4.09,1.02-.97,1.04-1.9,2.16-.44,3.54M167.32,122.28l-.28,.62c.8,.47,1.93,1.52,2.35,1.29,1.19-.76,2.24-1.72,3.11-2.83,.15-.17-.3-.9-.64-1.85-1.16,2.14-1.61,4.68-4.51,2.77m149.32,299.69c.16-.98,.5-1.92,1-2.78,.83-.61,1.76-1.06,2.75-1.35-.68-.93-1.99-1.14-2.93-.45-.14,.1-.27,.22-.38,.35-1.27,.89-1.58,2.65-.69,3.92,.07,.1,.15,.2,.24,.3m111.11-183.72c-.03,1.23,.14,2.45,.52,3.62,.52,.9,1.69,1.43,2.58,2.12l.29-.47-3.39-5.27M167.72,142.79h5.4c-1.42-2.42-3.42-2.41-5.4,0m0,6.22c-.06,.22-.13,.45-.19,.67,1.03,.25,2.1,.29,3.15,.13,.6-.22,.82-1.48,1.3-2.44l-4.27,1.64m199.62,6.15l-.9-.22c.28,2.71-1.74,3.39-3.48,4.51,1.34-.09,2.62-.6,3.65-1.46,.59-.59,.51-1.85,.73-2.81m93.42,265.98l-2.47-1.52c-.42,.55-.75,1.17-.97,1.83-.04,.25,.82,.97,1.21,.92,.6-.06,1.15-.6,2.21-1.23m-132.68,22.2c.01-.52,.02-1.03,.04-1.55l-2.58-.23c0,.63,0,1.25,0,1.88l2.54-.11M100.76,196.19v-5.87c-1.93,3.95-2.04,5.18,0,5.87" fill="#848b6f"/><path id="Path_5719" d="M86.92,482.94c-.03,.94,.24,1.86,.77,2.64,.55,.77,1.23,1.43,2.02,1.96,.89,.61,1.85,1.11,2.86,1.5,1.07,.43,2.18,.85,3.31,1.27,1.13,.42,2.24,.86,3.31,1.33,1.01,.44,1.97,.97,2.86,1.61,.8,.57,1.49,1.3,2.02,2.13,.53,.87,.8,1.88,.77,2.9,.03,1.45-.28,2.88-.9,4.19-.57,1.16-1.39,2.19-2.41,2.99-1.03,.8-2.2,1.41-3.44,1.78-1.29,.4-2.64,.61-4,.6-1.15,0-2.29-.14-3.39-.43-1.1-.27-2.15-.71-3.12-1.29-.96-.57-1.83-1.29-2.58-2.13-.77-.87-1.37-1.89-1.74-2.99l1.16-.52c.39,1.08,.97,2.09,1.72,2.97,.7,.82,1.53,1.51,2.45,2.06,.91,.54,1.9,.96,2.92,1.23,1.01,.27,2.05,.41,3.09,.41,1.1,0,2.2-.16,3.25-.47,1-.29,1.93-.76,2.77-1.38,.8-.6,1.46-1.37,1.93-2.25,.5-.96,.76-2.03,.73-3.12,.02-1.13-.47-2.22-1.33-2.95-1.01-.86-2.14-1.57-3.36-2.11-1.35-.61-2.79-1.2-4.34-1.76-1.49-.53-2.94-1.17-4.34-1.91-1.26-.65-2.4-1.52-3.35-2.58-.91-1.04-1.39-2.38-1.35-3.76-.02-1.16,.24-2.3,.77-3.33,.5-.94,1.2-1.76,2.05-2.41,.87-.66,1.85-1.15,2.9-1.46,1.09-.33,2.22-.49,3.35-.49,.92,0,1.84,.11,2.73,.32,.88,.21,1.73,.54,2.52,.99,.79,.45,1.5,1.03,2.11,1.7,.64,.7,1.13,1.52,1.46,2.41l-1.03,.52c-.39-.89-.92-1.71-1.57-2.43-.59-.65-1.28-1.21-2.05-1.66-1.45-.84-3.1-1.28-4.77-1.29-.87,0-1.73,.12-2.56,.37-.78,.22-1.51,.57-2.17,1.03-.62,.43-1.13,.99-1.5,1.64-.38,.66-.57,1.41-.56,2.17" fill="#848b6f"/><path id="Path_5720" d="M138.09,484.58l-9.42,23.19h-.77l-5.15-12.64-5.12,12.64h-.77l-9.46-23.19h3.18l8,19.27,3.86-9.5-4-9.76h3.18l2.41,5.8,2.36-5.8h.64l-2.67,6.58,5.25,12.69,7.83-19.27h.64Z" fill="#848b6f"/><path id="Path_5721" d="M158.16,493.05v14.75h-.17l-2.67-2.71v-3.18c-.25,.98-.67,1.91-1.25,2.75-.51,.74-1.15,1.39-1.87,1.93-.68,.51-1.43,.9-2.24,1.16-.77,.25-1.58,.38-2.39,.39-.84,0-1.68-.14-2.47-.43-.77-.28-1.48-.7-2.08-1.25-.62-.57-1.12-1.26-1.46-2.02-.39-.88-.58-1.83-.56-2.8-.04-1.32,.35-2.62,1.11-3.7,.8-1.05,1.85-1.88,3.06-2.43,1.44-.66,2.97-1.12,4.54-1.36,1.86-.29,3.73-.44,5.61-.43v-2.8c.02-.89-.15-1.78-.49-2.6-.6-1.39-1.77-2.46-3.22-2.92-.73-.24-1.49-.36-2.25-.36-1.18,0-2.35,.28-3.42,.8-1.14,.54-2.15,1.32-2.95,2.3l-.43-.39c.48-.56,1.02-1.07,1.61-1.5,.62-.46,1.29-.85,2-1.16,.71-.31,1.46-.57,2.21-.75,.74-.18,1.49-.28,2.25-.28,.96,0,1.92,.17,2.82,.5,.91,.33,1.73,.86,2.41,1.55,.76,.79,1.33,1.74,1.68,2.77,.45,1.35,.66,2.77,.62,4.19m-14.41,8.22c-.01,.88,.12,1.75,.41,2.58,.24,.69,.6,1.32,1.08,1.87,.43,.49,.97,.87,1.57,1.12,.59,.24,1.21,.37,1.85,.37,.82-.01,1.62-.19,2.37-.54,.83-.38,1.56-.94,2.15-1.64,.67-.8,1.2-1.72,1.55-2.71,.42-1.19,.63-2.45,.6-3.72v-4.38c-1.52-.04-3.05,.06-4.56,.3-1.28,.19-2.52,.59-3.68,1.18-1,.51-1.84,1.27-2.45,2.21-.61,1.01-.92,2.18-.88,3.36" fill="#848b6f"/><path id="Path_5722" d="M166.95,488.23c-.03,.98,.31,1.93,.97,2.67,.7,.76,1.52,1.4,2.43,1.89,1.03,.57,2.09,1.08,3.19,1.53,1.1,.45,2.16,.97,3.18,1.57,.93,.53,1.75,1.22,2.43,2.04,.66,.84,1,1.88,.97,2.94,.02,1.13-.22,2.25-.71,3.27-.44,.91-1.08,1.71-1.87,2.34-.79,.62-1.69,1.1-2.65,1.4-.98,.31-2,.47-3.03,.47-.89,0-1.77-.12-2.62-.34-.85-.23-1.67-.57-2.43-1.01-.76-.44-1.43-1.01-2-1.67-.59-.69-1.04-1.49-1.33-2.34l1.2-.43c.3,.86,.74,1.66,1.31,2.37,.54,.66,1.17,1.24,1.87,1.72,.67,.45,1.4,.8,2.17,1.03,.75,.23,1.52,.34,2.3,.34,.76,0,1.52-.12,2.24-.37,.7-.23,1.33-.6,1.87-1.09,.55-.52,.99-1.14,1.29-1.83,.35-.81,.51-1.69,.49-2.58,.02-.88-.33-1.72-.97-2.32-.73-.69-1.55-1.27-2.45-1.72-.99-.52-2.05-1.01-3.18-1.48-1.1-.46-2.17-.99-3.19-1.61-.93-.56-1.76-1.27-2.45-2.11-.66-.85-1-1.89-.97-2.97-.02-.85,.18-1.69,.56-2.45,.36-.7,.87-1.32,1.48-1.81,.63-.49,1.34-.87,2.11-1.1,.79-.24,1.61-.37,2.43-.37,1.4,0,2.78,.37,4,1.07,1.27,.73,2.25,1.89,2.75,3.27l-1.29,.38c-.45-1.36-1.35-2.53-2.54-3.33-.99-.66-2.16-1.03-3.35-1.05-1.06-.02-2.1,.31-2.95,.95-.85,.63-1.32,1.65-1.27,2.71" fill="#848b6f"/><path id="Path_5723" d="M188.98,501.73c0,.74,.11,1.48,.32,2.2,.2,.69,.51,1.33,.92,1.91,.84,1.18,2.21,1.86,3.65,1.83v.3c-1.28,.04-2.55-.21-3.72-.75-.96-.47-1.78-1.19-2.39-2.07-.63-.93-1.06-1.97-1.29-3.07-.27-1.26-.4-2.54-.39-3.83v-13.29h-2.33v-.39h2.33v-3.61l2.88-1.64v5.25h3.86v.39h-3.86v16.77Z" fill="#848b6f"/><path id="Path_5724" d="M201.91,478.22c-.02,.55-.21,1.07-.54,1.51-.36,.51-.78,1.06-1.27,1.63-.45-.52-.87-1.06-1.25-1.63-.32-.44-.5-.96-.52-1.51,0-.47,.18-.93,.52-1.27,.32-.35,.78-.54,1.25-.54,.99,.02,1.79,.82,1.81,1.81m-3.22,7.7l2.88-1.59v23.44h-2.89v-21.85Z" fill="#848b6f"/><path id="Path_5725" d="M237.4,507.37v.39h-18.23v-30.01h17.71v.39h-10.83c-.67,0-1.34,.02-2,.09-.42,.03-.83,.16-1.18,.39-.29,.2-.49,.5-.58,.84-.12,.47-.18,.95-.2,1.44v11.23h10.32v.39h-10.32v12.13c.01,.49,.08,.97,.2,1.44,.09,.34,.29,.64,.58,.84,.36,.22,.76,.36,1.18,.39,.67,.06,1.33,.09,2,.08h11.35Z" fill="#848b6f"/><path id="Path_5726" d="M261.06,499.33c-.25,1.37-.77,2.69-1.52,3.86-.7,1.08-1.58,2.04-2.6,2.82-1,.75-2.12,1.33-3.31,1.7-1.18,.37-2.42,.56-3.66,.56-1.38,0-2.75-.25-4.04-.73-1.31-.48-2.5-1.23-3.51-2.2-1.06-1.05-1.9-2.3-2.47-3.68-.66-1.65-.98-3.41-.95-5.18-.04-1.85,.32-3.68,1.06-5.37,.64-1.46,1.58-2.78,2.75-3.86,1.12-1.02,2.43-1.81,3.86-2.32,1.39-.51,2.86-.77,4.34-.77,1.76,0,3.5,.38,5.09,1.14,1.6,.76,2.94,1.96,3.86,3.46l-1.51,1.12c-.95-1.56-2.32-2.82-3.95-3.64-1.51-.76-3.17-1.17-4.86-1.18-1.08,0-2.14,.18-3.16,.54-2.05,.7-3.7,2.23-4.56,4.22-.5,1.16-.74,2.41-.71,3.67-.04,1.92,.27,3.83,.92,5.64,.54,1.49,1.37,2.85,2.43,4.02,.95,1.04,2.11,1.87,3.4,2.43,1.22,.53,2.53,.81,3.86,.81,.96,0,1.91-.15,2.82-.43,.93-.29,1.81-.73,2.6-1.31,.83-.62,1.57-1.37,2.17-2.22,.68-.96,1.19-2.02,1.53-3.14l.1,.05Z" fill="#848b6f"/><path id="Path_5727" d="M276.57,484.32c1.62-.03,3.22,.3,4.69,.97,1.34,.61,2.53,1.51,3.48,2.62,.96,1.12,1.69,2.41,2.17,3.81,1.01,2.94,1.01,6.13,0,9.08-.48,1.39-1.22,2.69-2.17,3.81-.96,1.12-2.15,2.01-3.48,2.62-1.47,.66-3.07,.99-4.69,.97-1.61,.03-3.2-.3-4.66-.97-1.33-.62-2.51-1.51-3.46-2.62-.96-1.12-1.69-2.41-2.17-3.81-1-2.94-1-6.13,0-9.08,.48-1.39,1.22-2.68,2.17-3.81,.95-1.11,2.13-2.01,3.46-2.62,1.46-.67,3.06-1,4.66-.97m-8.47,9.37c-.07,2.01,.22,4.02,.86,5.94,.52,1.54,1.32,2.97,2.37,4.22,.9,1.06,2.01,1.92,3.27,2.51,1.13,.54,2.36,.83,3.61,.84,.87,0,1.74-.16,2.56-.47,.82-.31,1.56-.8,2.17-1.42,.66-.68,1.17-1.48,1.5-2.37,.39-1.04,.6-2.15,.6-3.27,.09-2.09-.19-4.18-.84-6.17-.53-1.64-1.35-3.17-2.43-4.51-.92-1.14-2.06-2.07-3.36-2.75-1.13-.6-2.38-.93-3.66-.95-.86,0-1.71,.18-2.5,.52-.81,.35-1.53,.88-2.11,1.55-.65,.77-1.15,1.65-1.47,2.6-.4,1.2-.6,2.46-.6,3.72" fill="#848b6f"/><path id="Path_5728" d="M329.25,496.7c-.29,1.77-.9,3.48-1.81,5.03-.8,1.36-1.82,2.58-3.03,3.59-1.14,.95-2.45,1.68-3.86,2.15-1.37,.47-2.81,.71-4.26,.71-1.66,0-3.31-.32-4.86-.95-1.59-.64-3.04-1.61-4.23-2.84-1.31-1.36-2.33-2.97-3.01-4.73-.8-2.11-1.19-4.36-1.14-6.62-.06-2.43,.35-4.84,1.2-7.12,.71-1.86,1.82-3.54,3.25-4.92,1.34-1.28,2.94-2.24,4.69-2.84,1.78-.6,3.65-.91,5.53-.9,1.56,0,3.11,.19,4.62,.56,1.55,.38,3.05,.91,4.49,1.59l-.64,1.29c-1.47-.88-3.05-1.56-4.71-2.02-1.52-.42-3.09-.64-4.66-.64-1.58,0-3.15,.25-4.64,.77-1.42,.49-2.72,1.28-3.81,2.3-1.11,1.07-1.98,2.37-2.56,3.81-.66,1.68-.98,3.48-.95,5.29-.05,2.41,.32,4.81,1.1,7.09,.63,1.82,1.6,3.49,2.88,4.92,1.13,1.25,2.51,2.23,4.06,2.88,2.68,1.14,5.69,1.25,8.45,.32,2.53-.82,4.69-2.5,6.12-4.75,.78-1.22,1.32-2.58,1.61-4l.17,.04Z" fill="#848b6f"/><path id="Path_5729" d="M344.43,484.32c1.62-.03,3.22,.3,4.69,.97,1.34,.62,2.52,1.51,3.48,2.62,.95,1.12,1.69,2.41,2.17,3.81,1,2.94,1,6.13,0,9.08-.48,1.39-1.22,2.68-2.17,3.81-.96,1.11-2.15,2.01-3.48,2.62-1.47,.66-3.07,.99-4.69,.97-1.61,.03-3.2-.3-4.66-.97-1.33-.62-2.51-1.51-3.46-2.62-.96-1.12-1.69-2.41-2.17-3.81-1-2.94-1-6.13,0-9.08,.48-1.39,1.22-2.68,2.17-3.81,.95-1.11,2.13-2.01,3.46-2.62,1.46-.67,3.06-1,4.66-.97m-8.47,9.37c-.07,2.01,.22,4.02,.86,5.94,.52,1.54,1.32,2.97,2.37,4.22,.9,1.06,2.02,1.92,3.27,2.51,1.13,.54,2.36,.83,3.61,.84,.88,0,1.74-.16,2.56-.47,.82-.31,1.56-.8,2.17-1.42,.66-.68,1.17-1.48,1.51-2.37,.39-1.04,.6-2.15,.6-3.27,.09-2.09-.19-4.18-.84-6.17-.53-1.64-1.35-3.17-2.43-4.51-.92-1.14-2.06-2.07-3.36-2.75-1.12-.6-2.38-.93-3.65-.95-.86,0-1.71,.17-2.5,.52-.81,.35-1.53,.88-2.11,1.55-.65,.77-1.15,1.65-1.47,2.6-.4,1.2-.6,2.46-.6,3.72" fill="#848b6f"/><path id="Path_5730" d="M364.73,501.73c0,.74,.11,1.48,.32,2.2,.2,.68,.51,1.33,.92,1.91,.84,1.18,2.21,1.87,3.66,1.83v.3c-1.28,.04-2.55-.21-3.72-.75-.96-.47-1.78-1.19-2.39-2.07-.62-.93-1.06-1.97-1.29-3.07-.26-1.26-.39-2.54-.38-3.83v-13.29h-2.33v-.39h2.33v-3.61l2.88-1.64v5.25h3.86v.39h-3.86v16.77Z" fill="#848b6f"/><path id="Path_5731" d="M378.01,501.73c0,.74,.11,1.48,.32,2.2,.2,.68,.51,1.33,.92,1.91,.84,1.18,2.21,1.87,3.66,1.83v.3c-1.28,.04-2.55-.21-3.72-.75-.96-.47-1.78-1.19-2.39-2.07-.62-.93-1.06-1.97-1.29-3.07-.26-1.26-.39-2.54-.38-3.83v-13.29h-2.33v-.39h2.33v-3.61l2.88-1.64v5.25h3.86v.39h-3.86v16.77Z" fill="#848b6f"/><path id="Path_5732" d="M403.13,493.05v14.75h-.17l-2.67-2.71v-3.18c-.25,.98-.67,1.91-1.25,2.75-.52,.74-1.15,1.39-1.87,1.93-.68,.5-1.43,.9-2.24,1.16-.77,.25-1.58,.38-2.39,.39-.84,0-1.68-.14-2.47-.43-1.58-.56-2.86-1.74-3.54-3.27-.39-.88-.58-1.83-.56-2.8-.04-1.32,.35-2.62,1.12-3.7,.8-1.05,1.85-1.89,3.06-2.43,1.44-.66,2.97-1.12,4.53-1.36,1.86-.29,3.73-.44,5.61-.43v-2.8c.02-.89-.15-1.78-.5-2.6-.6-1.4-1.77-2.46-3.22-2.92-.73-.24-1.49-.36-2.25-.36-1.18,0-2.35,.28-3.42,.8-1.14,.54-2.15,1.32-2.95,2.3l-.43-.39c.48-.56,1.02-1.07,1.61-1.5,.62-.46,1.29-.85,2-1.16,.71-.31,1.46-.57,2.21-.75,.74-.18,1.49-.28,2.25-.28,.96,0,1.92,.17,2.82,.5,.91,.33,1.73,.86,2.41,1.55,.76,.79,1.33,1.74,1.68,2.77,.45,1.35,.66,2.77,.62,4.19m-14.41,8.22c-.01,.88,.12,1.75,.41,2.58,.24,.69,.6,1.32,1.08,1.87,.43,.49,.97,.87,1.57,1.12,.59,.24,1.21,.37,1.85,.37,.82-.01,1.62-.19,2.37-.54,.83-.38,1.56-.94,2.15-1.64,.67-.8,1.2-1.72,1.55-2.71,.42-1.19,.62-2.45,.6-3.72v-4.38c-1.53-.04-3.05,.06-4.56,.3-1.28,.19-2.52,.59-3.68,1.18-.99,.51-1.84,1.28-2.45,2.21-.61,1.01-.92,2.18-.88,3.36" fill="#848b6f"/><path id="Path_5733" d="M419.99,505.87c1.41-.06,2.83-.03,4.24,.08,1.12,.08,2.23,.33,3.27,.75,.85,.34,1.58,.94,2.08,1.7,.53,.9,.78,1.93,.73,2.97,0,1.21-.34,2.4-.97,3.44-.72,1.17-1.71,2.15-2.88,2.86-1.48,.9-3.09,1.56-4.77,1.96-2.19,.52-4.44,.77-6.69,.73v-.39c1.31-.01,2.62-.11,3.91-.28,1.5-.18,2.97-.53,4.39-1.03,1.32-.45,2.54-1.15,3.59-2.07,.98-.84,1.52-2.08,1.48-3.37,.16-1.58-.61-3.11-1.98-3.92-2.03-.83-4.23-1.12-6.41-.86-.66,0-1.31,0-1.95-.02-.65-.01-1.27-.02-1.87-.02-.67,0-1.34-.05-2-.15-.57-.08-1.12-.26-1.64-.52-.45-.23-.84-.57-1.12-.99-.28-.46-.43-.99-.41-1.53,.04-.79,.45-1.52,1.1-1.98,.96-.69,2.11-1.08,3.29-1.12-.9-.22-1.77-.59-2.56-1.08-.79-.49-1.49-1.1-2.06-1.83-.61-.77-1.07-1.63-1.38-2.56-.34-1.07-.51-2.19-.49-3.31-.03-1.37,.23-2.74,.77-4,.48-1.1,1.19-2.07,2.09-2.86,.89-.77,1.92-1.34,3.03-1.7,1.17-.38,2.38-.57,3.61-.56l10.06-.69-.13,1.2-7.27-.22c.93,.22,1.82,.58,2.65,1.08,.81,.48,1.52,1.1,2.11,1.83,.61,.77,1.08,1.64,1.4,2.58,.36,1.07,.53,2.2,.52,3.33,.03,1.37-.23,2.74-.77,4-.48,1.09-1.18,2.06-2.06,2.86-.87,.77-1.89,1.35-2.99,1.72-1.16,.39-2.37,.59-3.59,.58-.23,0-.47,0-.71-.02s-.48-.04-.71-.06c-1.09,.01-2.18,.18-3.22,.51-.78,.29-1.16,.68-1.16,1.16,0,.32,.12,.64,.34,.86,.25,.24,.55,.43,.88,.55,.4,.16,.82,.27,1.25,.32,.48,.07,.96,.11,1.44,.11,.69,0,1.36,0,2-.04s1.17-.05,1.57-.05m-3.61-20.93c-1.4,.17-2.69,.86-3.61,1.93-.8,1.01-1.3,2.22-1.44,3.5-.15,1.41-.01,2.83,.41,4.19,.41,1.4,1.05,2.72,1.89,3.91,.79,1.13,1.83,2.06,3.03,2.73,1.17,.66,2.54,.88,3.86,.64,1.98-.29,3.65-1.65,4.32-3.54,.34-.93,.5-1.91,.5-2.9,0-1.07-.15-2.13-.43-3.16-.29-1.06-.71-2.08-1.25-3.03-.51-.91-1.16-1.75-1.91-2.47-.71-.67-1.54-1.2-2.45-1.55-.93-.34-1.93-.43-2.9-.26" fill="#848b6f"/><path id="Path_5734" d="M454.59,498.89c-.27,1.44-.8,2.81-1.55,4.06-.67,1.1-1.52,2.08-2.51,2.9-.94,.76-2.01,1.35-3.16,1.74-1.12,.38-2.3,.58-3.48,.58-1.3,0-2.58-.25-3.78-.73-1.23-.49-2.35-1.22-3.27-2.17-1-1.05-1.78-2.29-2.3-3.64-.62-1.63-.92-3.37-.88-5.12-.05-1.91,.28-3.81,.97-5.59,.56-1.43,1.41-2.72,2.49-3.81,.98-.97,2.16-1.71,3.46-2.17,1.24-.45,2.55-.68,3.86-.69,1.09,0,2.18,.15,3.22,.47,.98,.3,1.9,.75,2.73,1.35,.78,.56,1.43,1.29,1.91,2.13,.48,.85,.73,1.82,.71,2.8l-17.25-.05c-.06,.32-.12,.67-.17,1.08-.06,.37-.09,.74-.09,1.12-.04,1.94,.23,3.87,.82,5.72,.46,1.42,1.19,2.73,2.15,3.86,.82,.96,1.86,1.71,3.03,2.2,1.11,.45,2.3,.69,3.5,.69,1.03,0,2.05-.16,3.03-.47,.99-.32,1.92-.78,2.77-1.38,.86-.6,1.62-1.32,2.25-2.15,.64-.83,1.12-1.78,1.39-2.8l.13,.06Zm-4.86-9.66c0-.65-.15-1.29-.47-1.85-.31-.54-.74-1.01-1.25-1.38-.55-.39-1.16-.68-1.81-.86-.71-.2-1.45-.3-2.19-.3-.8,0-1.6,.11-2.37,.32-.82,.22-1.59,.57-2.3,1.03-.75,.49-1.42,1.08-2,1.76-.63,.76-1.13,1.63-1.46,2.56l12.38-.05c.42,.06,.85-.04,1.2-.28,.2-.28,.3-.62,.26-.97" fill="#848b6f"/><path id="Path_5735" d="M462.13,488.23c-.03,.98,.31,1.93,.97,2.67,.7,.76,1.52,1.4,2.43,1.89,1.03,.57,2.09,1.08,3.19,1.53,1.1,.45,2.16,.97,3.18,1.57,.93,.53,1.75,1.22,2.43,2.04,.66,.84,1,1.88,.97,2.94,.02,1.13-.22,2.25-.71,3.27-.44,.91-1.08,1.71-1.87,2.34-.79,.62-1.69,1.1-2.65,1.4-.98,.31-2,.47-3.03,.47-.89,0-1.77-.12-2.62-.34-.85-.23-1.67-.57-2.43-1.01-.76-.44-1.43-1.01-2-1.67-.59-.69-1.04-1.49-1.34-2.34l1.2-.43c.3,.86,.74,1.66,1.31,2.37,.53,.66,1.16,1.24,1.87,1.72,.67,.45,1.4,.8,2.17,1.03,.75,.23,1.52,.34,2.3,.34,.76,0,1.52-.12,2.24-.37,.69-.23,1.33-.6,1.87-1.09,.55-.51,.99-1.14,1.29-1.83,.35-.81,.51-1.69,.49-2.58,.02-.88-.33-1.72-.97-2.32-.73-.69-1.55-1.27-2.45-1.72-.99-.52-2.05-1.01-3.18-1.48-1.1-.46-2.17-.99-3.19-1.61-.93-.56-1.76-1.27-2.45-2.11-.66-.85-1-1.89-.97-2.97-.02-.85,.18-1.69,.56-2.45,.36-.7,.87-1.32,1.48-1.81,.63-.49,1.34-.87,2.11-1.1,.79-.24,1.61-.37,2.43-.37,1.41,0,2.79,.37,4,1.07,1.27,.73,2.25,1.89,2.75,3.27l-1.29,.38c-.45-1.36-1.35-2.53-2.54-3.33-1-.66-2.16-1.03-3.36-1.05-1.06-.02-2.1,.31-2.95,.95-.85,.64-1.32,1.65-1.27,2.71" fill="#848b6f"/><path id="Path_5736" d="M86.97,483.12c-.03,.94,.24,1.86,.77,2.64,.55,.77,1.23,1.43,2.02,1.96,.89,.61,1.85,1.11,2.86,1.5,1.07,.43,2.18,.85,3.31,1.27,1.13,.42,2.24,.86,3.31,1.33,1.01,.44,1.97,.97,2.86,1.61,.8,.57,1.49,1.3,2.02,2.13,.53,.87,.8,1.88,.77,2.9,.03,1.45-.28,2.88-.9,4.19-.57,1.16-1.39,2.19-2.41,2.99-1.03,.8-2.2,1.41-3.44,1.78-1.29,.4-2.64,.61-4,.6-1.15,0-2.29-.14-3.39-.43-1.1-.27-2.15-.71-3.12-1.29-.96-.57-1.83-1.29-2.58-2.13-.77-.87-1.37-1.89-1.74-2.99l1.16-.52c.39,1.08,.97,2.09,1.72,2.97,.7,.82,1.53,1.51,2.45,2.06,.91,.54,1.9,.96,2.92,1.23,1.01,.27,2.05,.41,3.09,.41,1.1,0,2.2-.16,3.25-.47,1-.29,1.93-.76,2.77-1.38,.8-.6,1.46-1.37,1.93-2.25,.5-.96,.76-2.03,.73-3.12,.02-1.13-.47-2.22-1.33-2.95-1.01-.86-2.14-1.57-3.36-2.11-1.35-.61-2.79-1.2-4.34-1.76-1.49-.53-2.94-1.17-4.34-1.91-1.26-.65-2.4-1.52-3.35-2.58-.9-1.03-1.38-2.37-1.33-3.74-.02-1.16,.24-2.3,.77-3.33,.5-.94,1.2-1.76,2.04-2.41,.87-.66,1.85-1.15,2.9-1.46,1.09-.33,2.22-.49,3.35-.49,.92,0,1.84,.11,2.73,.32,.88,.21,1.73,.54,2.52,.99,.79,.45,1.5,1.03,2.11,1.7,.64,.7,1.13,1.52,1.46,2.41l-1.03,.52c-.39-.89-.92-1.71-1.57-2.43-.59-.65-1.28-1.21-2.05-1.66-1.45-.84-3.1-1.28-4.77-1.29-.87,0-1.73,.12-2.56,.37-.78,.22-1.51,.57-2.17,1.03-.62,.43-1.13,.99-1.5,1.64-.38,.66-.57,1.41-.56,2.17" fill="#848b6f"/><path id="Path_5737" d="M138.14,484.75l-9.42,23.19h-.77l-5.15-12.64-5.12,12.64h-.77l-9.46-23.19h3.18l8,19.27,3.86-9.5-4-9.76h3.18l2.41,5.8,2.36-5.8h.64l-2.67,6.58,5.25,12.69,7.83-19.27h.64Z" fill="#848b6f"/><path id="Path_5738" d="M158.23,493.22v14.75h-.17l-2.67-2.71v-3.18c-.25,.98-.67,1.91-1.25,2.75-.51,.74-1.15,1.39-1.87,1.93-.68,.51-1.43,.9-2.24,1.16-.77,.25-1.58,.38-2.39,.39-.84,0-1.68-.14-2.47-.43-.77-.28-1.48-.7-2.08-1.25-.62-.57-1.12-1.26-1.46-2.02-.39-.88-.58-1.83-.56-2.8-.04-1.32,.35-2.62,1.11-3.7,.8-1.05,1.85-1.88,3.06-2.43,1.44-.66,2.97-1.12,4.54-1.36,1.86-.29,3.73-.44,5.61-.43v-2.8c.02-.89-.15-1.78-.49-2.6-.6-1.39-1.77-2.46-3.22-2.92-.73-.24-1.49-.36-2.25-.36-1.18,0-2.35,.28-3.42,.8-1.14,.54-2.15,1.32-2.95,2.3l-.43-.39c.48-.56,1.02-1.07,1.61-1.5,.62-.46,1.29-.85,2-1.16,.71-.31,1.46-.57,2.21-.75,.74-.18,1.49-.28,2.25-.28,.96,0,1.92,.17,2.82,.5,.91,.33,1.73,.86,2.41,1.55,.76,.79,1.33,1.74,1.68,2.77,.45,1.35,.66,2.77,.62,4.19m-14.41,8.22c-.01,.88,.12,1.75,.41,2.58,.24,.69,.6,1.32,1.08,1.87,.43,.49,.97,.87,1.57,1.12,.59,.24,1.21,.37,1.85,.37,.82-.01,1.62-.19,2.37-.54,.83-.38,1.56-.94,2.15-1.64,.67-.8,1.2-1.72,1.55-2.71,.42-1.19,.63-2.45,.6-3.72v-4.38c-1.52-.04-3.05,.06-4.56,.3-1.28,.19-2.52,.59-3.68,1.18-1,.51-1.84,1.27-2.45,2.21-.61,1.01-.92,2.18-.88,3.36" fill="#848b6f"/><path id="Path_5739" d="M167,488.41c-.03,.98,.31,1.93,.97,2.67,.7,.76,1.52,1.4,2.43,1.89,1.03,.57,2.09,1.08,3.19,1.52,1.1,.45,2.16,.98,3.18,1.57,.93,.53,1.75,1.22,2.43,2.04,.66,.84,1,1.88,.97,2.94,.02,1.13-.22,2.25-.71,3.27-.44,.91-1.08,1.71-1.87,2.34-.79,.62-1.69,1.1-2.65,1.4-.98,.31-2,.47-3.03,.47-.89,0-1.77-.12-2.62-.34-.85-.23-1.67-.57-2.43-1.01-.76-.44-1.43-1.01-2-1.67-.59-.69-1.04-1.49-1.33-2.34l1.2-.43c.3,.86,.74,1.66,1.31,2.37,.54,.66,1.17,1.24,1.87,1.72,.67,.45,1.4,.8,2.17,1.03,.75,.23,1.52,.34,2.3,.34,.76,0,1.52-.12,2.24-.37,.7-.23,1.33-.6,1.87-1.09,.55-.52,.99-1.14,1.29-1.83,.35-.81,.51-1.69,.49-2.58,.02-.88-.33-1.72-.97-2.32-.73-.69-1.55-1.27-2.45-1.72-.99-.52-2.05-1.01-3.18-1.48-1.1-.46-2.17-.99-3.19-1.61-.93-.55-1.76-1.27-2.45-2.11-.66-.85-1-1.89-.97-2.97-.02-.85,.18-1.69,.56-2.45,.36-.7,.87-1.32,1.48-1.81,.63-.49,1.34-.86,2.11-1.09,.79-.24,1.61-.37,2.43-.37,1.4,0,2.78,.37,4,1.07,1.27,.73,2.25,1.89,2.75,3.27l-1.29,.38c-.45-1.36-1.35-2.53-2.54-3.33-.99-.66-2.16-1.03-3.35-1.05-1.06-.02-2.1,.31-2.95,.95-.85,.63-1.32,1.65-1.27,2.71" fill="#848b6f"/><path id="Path_5740" d="M189.02,501.91c0,.74,.11,1.48,.32,2.2,.2,.69,.51,1.33,.92,1.91,.84,1.18,2.21,1.86,3.65,1.83v.3c-1.28,.04-2.55-.21-3.72-.75-.96-.47-1.78-1.19-2.39-2.07-.63-.93-1.06-1.97-1.29-3.07-.27-1.26-.4-2.54-.39-3.83v-13.29h-2.33v-.39h2.33v-3.61l2.88-1.64v5.25h3.86v.39h-3.86v16.77Z" fill="#848b6f"/><path id="Path_5741" d="M201.96,478.39c-.02,.55-.21,1.07-.54,1.51-.36,.51-.78,1.06-1.27,1.63-.45-.52-.87-1.06-1.25-1.63-.32-.44-.5-.96-.52-1.51,0-.47,.18-.93,.52-1.27,.32-.35,.78-.54,1.25-.54,.99,.02,1.79,.82,1.81,1.81m-3.22,7.7l2.88-1.59v23.44h-2.88v-21.85Z" fill="#848b6f"/><path id="Path_5742" d="M237.44,507.54v.39h-18.23v-30.01h17.71v.39h-10.83c-.67,0-1.34,.02-2,.09-.42,.03-.83,.16-1.18,.39-.29,.2-.49,.5-.58,.84-.12,.47-.18,.95-.2,1.44v11.23h10.32v.39h-10.32v12.13c.01,.49,.08,.97,.2,1.44,.09,.34,.29,.64,.58,.84,.36,.22,.76,.36,1.18,.39,.67,.06,1.33,.09,2,.08h11.35Z" fill="#848b6f"/><path id="Path_5743" d="M261.09,499.5c-.25,1.37-.77,2.69-1.52,3.86-.7,1.08-1.58,2.04-2.6,2.82-1,.75-2.12,1.33-3.31,1.7-1.18,.37-2.42,.56-3.66,.56-1.38,0-2.75-.25-4.04-.73-1.31-.48-2.5-1.23-3.51-2.2-1.06-1.05-1.91-2.3-2.47-3.68-.66-1.65-.98-3.41-.95-5.18-.04-1.85,.32-3.68,1.06-5.37,.64-1.46,1.58-2.78,2.75-3.86,1.12-1.02,2.43-1.81,3.86-2.32,1.39-.51,2.86-.77,4.34-.77,1.76,0,3.5,.38,5.09,1.14,1.6,.76,2.94,1.96,3.86,3.46l-1.51,1.12c-.95-1.56-2.32-2.82-3.95-3.64-1.51-.76-3.17-1.17-4.86-1.18-1.08,0-2.14,.18-3.16,.54-2.05,.7-3.7,2.23-4.56,4.22-.49,1.16-.74,2.41-.71,3.67-.04,1.92,.27,3.83,.92,5.64,.54,1.49,1.37,2.85,2.43,4.02,.95,1.04,2.11,1.87,3.4,2.43,1.22,.53,2.53,.81,3.86,.81,.96,0,1.91-.15,2.82-.43,.93-.29,1.81-.73,2.6-1.31,.83-.62,1.57-1.37,2.17-2.22,.68-.96,1.19-2.02,1.53-3.14l.1,.04Z" fill="#848b6f"/><path id="Path_5744" d="M276.62,484.49c1.62-.03,3.22,.3,4.69,.97,1.34,.61,2.53,1.51,3.48,2.62,.96,1.12,1.69,2.41,2.17,3.81,.51,1.47,.76,3.01,.75,4.56,0,1.53-.25,3.06-.75,4.51-.48,1.39-1.22,2.69-2.17,3.81-.96,1.11-2.15,2.01-3.48,2.62-1.47,.66-3.07,.99-4.69,.97-1.61,.03-3.2-.3-4.66-.97-1.33-.62-2.51-1.51-3.46-2.62-.96-1.12-1.7-2.41-2.17-3.81-.5-1.45-.76-2.97-.75-4.51,0-1.55,.25-3.09,.75-4.56,.48-1.39,1.22-2.68,2.17-3.81,.95-1.11,2.13-2.01,3.46-2.62,1.46-.67,3.06-1,4.66-.97m-8.47,9.37c-.07,2.02,.22,4.03,.86,5.94,.52,1.54,1.32,2.97,2.37,4.22,.9,1.06,2.01,1.92,3.27,2.51,1.13,.54,2.36,.83,3.61,.84,.87,0,1.74-.16,2.56-.47,.82-.31,1.56-.8,2.17-1.42,.66-.68,1.17-1.48,1.5-2.37,.39-1.04,.6-2.15,.6-3.27,.09-2.09-.19-4.18-.84-6.17-.53-1.64-1.35-3.17-2.43-4.51-.92-1.14-2.06-2.07-3.35-2.75-1.13-.6-2.38-.93-3.66-.95-.86,0-1.71,.18-2.5,.52-.81,.35-1.53,.88-2.11,1.55-.65,.77-1.15,1.65-1.47,2.6-.4,1.2-.6,2.46-.6,3.72" fill="#848b6f"/><path id="Path_5745" d="M329.29,496.88c-.29,1.77-.9,3.48-1.81,5.03-.8,1.36-1.82,2.58-3.03,3.59-1.14,.95-2.45,1.68-3.86,2.15-1.37,.47-2.81,.71-4.26,.71-1.66,0-3.31-.32-4.86-.95-1.59-.64-3.04-1.61-4.23-2.84-1.31-1.36-2.33-2.97-3.01-4.73-.8-2.11-1.19-4.36-1.14-6.62-.06-2.43,.35-4.84,1.2-7.12,.71-1.86,1.82-3.54,3.25-4.92,1.34-1.28,2.94-2.24,4.69-2.84,1.78-.6,3.65-.91,5.53-.9,1.56,0,3.11,.19,4.62,.56,1.55,.38,3.05,.91,4.49,1.59l-.64,1.29c-1.47-.88-3.05-1.56-4.71-2.02-1.52-.42-3.09-.64-4.66-.64-1.58,0-3.15,.25-4.64,.77-1.42,.49-2.71,1.28-3.81,2.3-1.11,1.08-1.98,2.37-2.56,3.81-.66,1.68-.98,3.48-.95,5.28-.05,2.41,.32,4.81,1.1,7.09,.63,1.82,1.6,3.49,2.88,4.92,1.13,1.25,2.51,2.23,4.06,2.88,2.68,1.14,5.69,1.25,8.45,.32,2.53-.82,4.69-2.5,6.12-4.75,.78-1.22,1.32-2.58,1.61-4l.17,.04Z" fill="#848b6f"/><path id="Path_5746" d="M344.47,484.49c1.62-.03,3.22,.3,4.69,.97,1.34,.62,2.52,1.51,3.48,2.62,.95,1.12,1.69,2.41,2.17,3.81,.5,1.47,.76,3.01,.75,4.56,0,1.53-.25,3.06-.75,4.51-.48,1.39-1.22,2.68-2.17,3.81-.96,1.11-2.15,2.01-3.48,2.62-1.47,.66-3.07,.99-4.69,.97-1.61,.03-3.2-.3-4.66-.97-1.33-.62-2.51-1.51-3.46-2.62-.96-1.12-1.69-2.41-2.17-3.81-.5-1.45-.76-2.97-.75-4.51,0-1.55,.25-3.09,.75-4.56,.48-1.39,1.22-2.68,2.17-3.81,.95-1.11,2.13-2.01,3.46-2.62,1.46-.67,3.06-1,4.66-.97m-8.47,9.37c-.07,2.01,.22,4.02,.86,5.94,.52,1.54,1.32,2.97,2.37,4.22,.9,1.06,2.02,1.92,3.27,2.51,1.13,.54,2.36,.83,3.61,.84,.88,0,1.74-.16,2.56-.47,.82-.31,1.56-.8,2.17-1.42,.66-.68,1.17-1.48,1.51-2.37,.39-1.04,.6-2.15,.6-3.27,.09-2.09-.19-4.18-.84-6.17-.53-1.64-1.35-3.17-2.43-4.51-.92-1.14-2.06-2.07-3.36-2.75-1.12-.6-2.38-.93-3.65-.95-.86,0-1.71,.18-2.5,.52-.81,.35-1.53,.88-2.11,1.55-.65,.77-1.15,1.65-1.47,2.6-.4,1.2-.6,2.46-.6,3.72" fill="#848b6f"/><path id="Path_5747" d="M364.78,501.91c0,.74,.11,1.48,.32,2.2,.2,.68,.51,1.33,.92,1.91,.84,1.18,2.21,1.87,3.66,1.83v.3c-1.28,.04-2.55-.21-3.72-.75-.96-.47-1.78-1.19-2.39-2.07-.62-.93-1.06-1.97-1.29-3.07-.26-1.26-.39-2.54-.38-3.83v-13.29h-2.33v-.39h2.33v-3.61l2.88-1.64v5.25h3.86v.39h-3.86v16.77Z" fill="#848b6f"/><path id="Path_5748" d="M378.06,501.91c0,.74,.11,1.48,.32,2.2,.2,.68,.51,1.33,.92,1.91,.84,1.18,2.21,1.87,3.66,1.83v.3c-1.28,.04-2.56-.21-3.72-.75-.96-.47-1.78-1.19-2.39-2.07-.62-.93-1.06-1.97-1.29-3.07-.26-1.26-.39-2.54-.38-3.83v-13.29h-2.33v-.39h2.33v-3.61l2.88-1.64v5.25h3.86v.39h-3.86v16.77Z" fill="#848b6f"/><path id="Path_5749" d="M403.18,493.22v14.75h-.17l-2.67-2.71v-3.18c-.25,.98-.67,1.91-1.25,2.75-.52,.74-1.15,1.39-1.87,1.93-.68,.51-1.43,.9-2.24,1.16-.77,.25-1.58,.38-2.39,.39-.84,0-1.68-.14-2.47-.43-1.58-.56-2.86-1.74-3.54-3.27-.39-.88-.58-1.83-.56-2.8-.04-1.32,.35-2.62,1.12-3.7,.8-1.05,1.85-1.89,3.06-2.43,1.44-.66,2.97-1.12,4.53-1.36,1.86-.29,3.73-.44,5.61-.43v-2.8c.02-.89-.15-1.78-.5-2.6-.6-1.4-1.77-2.46-3.22-2.92-.73-.24-1.49-.36-2.25-.36-1.18,0-2.35,.28-3.42,.8-1.14,.54-2.15,1.32-2.95,2.3l-.43-.39c.48-.56,1.02-1.07,1.61-1.5,.62-.46,1.29-.85,2-1.16,.71-.31,1.46-.57,2.21-.75,.74-.18,1.49-.28,2.25-.28,.96,0,1.92,.17,2.82,.5,.91,.33,1.73,.86,2.41,1.55,.76,.79,1.33,1.74,1.68,2.77,.45,1.35,.66,2.77,.62,4.19m-14.41,8.22c-.01,.88,.12,1.75,.41,2.58,.24,.69,.6,1.32,1.08,1.87,.43,.49,.97,.87,1.57,1.12,.59,.24,1.21,.37,1.85,.37,.82-.01,1.62-.19,2.37-.54,.83-.38,1.56-.94,2.15-1.64,.67-.8,1.2-1.72,1.55-2.71,.42-1.19,.62-2.45,.6-3.72v-4.38c-1.53-.04-3.05,.06-4.56,.3-1.28,.19-2.52,.59-3.68,1.18-.99,.51-1.84,1.28-2.45,2.21-.61,1.01-.92,2.18-.88,3.36" fill="#848b6f"/><path id="Path_5750" d="M420.03,506.04c1.41-.06,2.83-.03,4.23,.08,1.12,.08,2.23,.33,3.27,.75,.85,.34,1.58,.94,2.08,1.7,.53,.9,.78,1.93,.73,2.97,0,1.21-.34,2.4-.97,3.44-.72,1.17-1.71,2.15-2.88,2.86-1.48,.9-3.09,1.56-4.77,1.96-2.19,.52-4.44,.77-6.69,.73v-.39c1.31-.02,2.62-.11,3.91-.28,1.5-.18,2.97-.53,4.39-1.03,1.32-.45,2.54-1.15,3.59-2.07,.98-.84,1.52-2.08,1.48-3.37,.16-1.58-.61-3.11-1.98-3.92-2.03-.83-4.23-1.12-6.41-.86-.66,0-1.31,0-1.95-.02s-1.27-.02-1.87-.02c-.67,0-1.34-.05-2-.15-.57-.08-1.12-.26-1.64-.52-.45-.23-.84-.57-1.12-.99-.28-.46-.43-.99-.41-1.53,.04-.79,.44-1.52,1.09-1.98,.96-.69,2.11-1.08,3.29-1.12-.9-.22-1.77-.59-2.56-1.08-.79-.49-1.49-1.1-2.06-1.83-.61-.77-1.07-1.63-1.38-2.56-.34-1.07-.51-2.19-.49-3.31-.03-1.37,.24-2.74,.77-4,.48-1.09,1.19-2.07,2.09-2.86,.89-.77,1.92-1.34,3.03-1.7,1.17-.38,2.38-.57,3.61-.56l10.06-.69-.13,1.2-7.25-.22c.93,.22,1.82,.58,2.65,1.08,.81,.48,1.52,1.1,2.11,1.83,.61,.77,1.08,1.64,1.4,2.58,.36,1.07,.53,2.2,.52,3.33,.03,1.37-.23,2.74-.77,4-.48,1.09-1.18,2.06-2.06,2.86-.87,.77-1.89,1.35-2.99,1.72-1.16,.39-2.37,.59-3.59,.58-.23,0-.47,0-.71-.02s-.48-.04-.71-.06c-1.09,.01-2.18,.18-3.22,.51-.77,.29-1.16,.68-1.16,1.16,0,.32,.12,.64,.34,.86,.25,.24,.55,.43,.88,.55,.4,.16,.82,.27,1.25,.32,.48,.07,.96,.11,1.44,.11,.69,0,1.36,0,2-.04s1.17-.05,1.57-.05m-3.61-20.93c-1.4,.17-2.69,.86-3.61,1.93-.8,1.01-1.3,2.22-1.44,3.5-.15,1.41-.01,2.83,.41,4.19,.41,1.4,1.05,2.72,1.89,3.91,.79,1.13,1.83,2.06,3.03,2.73,1.17,.66,2.54,.89,3.86,.64,1.01-.15,1.97-.59,2.75-1.25,.7-.62,1.24-1.4,1.57-2.28,.34-.93,.5-1.91,.5-2.9,0-1.07-.15-2.13-.43-3.16-.29-1.06-.71-2.08-1.25-3.03-.51-.91-1.16-1.75-1.91-2.47-.71-.67-1.54-1.2-2.45-1.55-.93-.34-1.93-.43-2.9-.26" fill="#848b6f"/><path id="Path_5751" d="M454.65,499.07c-.27,1.44-.8,2.81-1.55,4.06-.67,1.1-1.52,2.08-2.51,2.9-.94,.76-2.01,1.35-3.16,1.74-1.12,.38-2.3,.58-3.48,.58-1.3,0-2.58-.25-3.78-.73-1.23-.48-2.35-1.22-3.27-2.17-1-1.05-1.78-2.29-2.3-3.64-.62-1.63-.92-3.37-.88-5.12-.05-1.91,.28-3.81,.97-5.59,.56-1.43,1.41-2.72,2.49-3.81,.98-.97,2.16-1.71,3.46-2.17,1.24-.45,2.55-.68,3.86-.69,1.09,0,2.17,.15,3.2,.47,.98,.3,1.9,.75,2.73,1.35,.78,.56,1.43,1.29,1.91,2.13,.48,.85,.73,1.82,.71,2.8l-17.25-.05c-.06,.32-.12,.67-.17,1.08-.06,.37-.09,.74-.09,1.12-.04,1.94,.23,3.87,.82,5.72,.46,1.42,1.19,2.73,2.15,3.86,.82,.96,1.86,1.71,3.03,2.2,1.11,.45,2.3,.69,3.5,.69,1.03,0,2.05-.16,3.03-.47,.99-.32,1.92-.78,2.77-1.38,.86-.6,1.62-1.32,2.25-2.15,.64-.83,1.12-1.78,1.39-2.8l.14,.06Zm-4.86-9.66c0-.65-.15-1.29-.47-1.85-.31-.54-.74-1.01-1.25-1.38-.55-.39-1.16-.68-1.81-.86-.71-.2-1.45-.3-2.19-.3-.8,0-1.6,.11-2.37,.32-.82,.22-1.59,.57-2.3,1.03-.75,.49-1.42,1.08-2,1.76-.63,.76-1.13,1.63-1.46,2.56l12.39-.05c.42,.06,.85-.04,1.2-.28,.2-.28,.3-.62,.26-.97" fill="#848b6f"/><path id="Path_5752" d="M462.18,488.41c-.03,.98,.31,1.93,.97,2.67,.7,.76,1.52,1.4,2.43,1.89,1.03,.57,2.09,1.08,3.19,1.52,1.1,.45,2.16,.98,3.18,1.57,.93,.53,1.75,1.22,2.43,2.04,.66,.84,1,1.88,.97,2.94,.02,1.13-.22,2.25-.71,3.27-.44,.91-1.08,1.71-1.87,2.34-.79,.62-1.69,1.1-2.65,1.4-.98,.31-2,.47-3.03,.47-.89,0-1.77-.12-2.62-.34-.85-.23-1.67-.57-2.43-1.01-.76-.44-1.43-1.01-2-1.67-.59-.69-1.04-1.49-1.34-2.34l1.2-.43c.3,.86,.74,1.66,1.31,2.37,.53,.66,1.16,1.24,1.87,1.72,.67,.45,1.4,.8,2.17,1.03,.75,.23,1.52,.34,2.3,.34,.76,0,1.52-.12,2.24-.37,.69-.23,1.33-.6,1.87-1.09,.55-.51,.99-1.14,1.29-1.83,.35-.81,.51-1.69,.49-2.58,.02-.88-.33-1.72-.97-2.32-.73-.69-1.55-1.27-2.45-1.72-.99-.52-2.05-1.01-3.18-1.48-1.1-.46-2.17-.99-3.19-1.61-.93-.55-1.76-1.27-2.45-2.11-.66-.85-1-1.89-.97-2.97-.02-.85,.18-1.69,.56-2.45,.36-.7,.87-1.32,1.48-1.81,.63-.49,1.34-.86,2.11-1.09,.79-.24,1.61-.37,2.43-.37,1.41,0,2.79,.37,4,1.07,1.27,.73,2.25,1.89,2.75,3.27l-1.29,.38c-.45-1.36-1.34-2.53-2.53-3.33-1-.66-2.16-1.03-3.36-1.05-1.06-.02-2.1,.31-2.95,.95-.85,.64-1.32,1.65-1.27,2.71" fill="#848b6f"/></svg>